G04 #@! TF.GenerationSoftware,KiCad,Pcbnew,(5.1.12-1-10_14)*
G04 #@! TF.CreationDate,2021-11-11T12:16:40-05:00*
G04 #@! TF.ProjectId,ferris-sweep-compact,66657272-6973-42d7-9377-6565702d636f,0.1*
G04 #@! TF.SameCoordinates,Original*
G04 #@! TF.FileFunction,Legend,Bot*
G04 #@! TF.FilePolarity,Positive*
%FSLAX46Y46*%
G04 Gerber Fmt 4.6, Leading zero omitted, Abs format (unit mm)*
G04 Created by KiCad (PCBNEW (5.1.12-1-10_14)) date 2021-11-11 12:16:40*
%MOMM*%
%LPD*%
G01*
G04 APERTURE LIST*
%ADD10C,0.300000*%
%ADD11C,0.010000*%
%ADD12C,0.150000*%
%ADD13C,0.125000*%
%ADD14C,1.390600*%
%ADD15C,2.432000*%
%ADD16C,3.829000*%
%ADD17C,2.101800*%
%ADD18C,1.924000*%
%ADD19C,2.400000*%
%ADD20C,1.600000*%
%ADD21O,2.900000X2.100000*%
G04 APERTURE END LIST*
D10*
X134393714Y-48086571D02*
X134465142Y-48015142D01*
X134536571Y-47800857D01*
X134536571Y-47658000D01*
X134465142Y-47443714D01*
X134322285Y-47300857D01*
X134179428Y-47229428D01*
X133893714Y-47158000D01*
X133679428Y-47158000D01*
X133393714Y-47229428D01*
X133250857Y-47300857D01*
X133108000Y-47443714D01*
X133036571Y-47658000D01*
X133036571Y-47800857D01*
X133108000Y-48015142D01*
X133179428Y-48086571D01*
X134536571Y-48943714D02*
X134465142Y-48800857D01*
X134393714Y-48729428D01*
X134250857Y-48658000D01*
X133822285Y-48658000D01*
X133679428Y-48729428D01*
X133608000Y-48800857D01*
X133536571Y-48943714D01*
X133536571Y-49158000D01*
X133608000Y-49300857D01*
X133679428Y-49372285D01*
X133822285Y-49443714D01*
X134250857Y-49443714D01*
X134393714Y-49372285D01*
X134465142Y-49300857D01*
X134536571Y-49158000D01*
X134536571Y-48943714D01*
X133536571Y-50086571D02*
X134536571Y-50086571D01*
X133679428Y-50086571D02*
X133608000Y-50158000D01*
X133536571Y-50300857D01*
X133536571Y-50515142D01*
X133608000Y-50658000D01*
X133750857Y-50729428D01*
X134536571Y-50729428D01*
X133536571Y-51229428D02*
X133536571Y-51800857D01*
X133036571Y-51443714D02*
X134322285Y-51443714D01*
X134465142Y-51515142D01*
X134536571Y-51658000D01*
X134536571Y-51800857D01*
X134536571Y-52300857D02*
X133536571Y-52300857D01*
X133822285Y-52300857D02*
X133679428Y-52372285D01*
X133608000Y-52443714D01*
X133536571Y-52586571D01*
X133536571Y-52729428D01*
X134536571Y-53443714D02*
X134465142Y-53300857D01*
X134393714Y-53229428D01*
X134250857Y-53158000D01*
X133822285Y-53158000D01*
X133679428Y-53229428D01*
X133608000Y-53300857D01*
X133536571Y-53443714D01*
X133536571Y-53658000D01*
X133608000Y-53800857D01*
X133679428Y-53872285D01*
X133822285Y-53943714D01*
X134250857Y-53943714D01*
X134393714Y-53872285D01*
X134465142Y-53800857D01*
X134536571Y-53658000D01*
X134536571Y-53443714D01*
X134536571Y-54800857D02*
X134465142Y-54658000D01*
X134322285Y-54586571D01*
X133036571Y-54586571D01*
X134536571Y-55586571D02*
X134465142Y-55443714D01*
X134322285Y-55372285D01*
X133036571Y-55372285D01*
X134465142Y-56729428D02*
X134536571Y-56586571D01*
X134536571Y-56300857D01*
X134465142Y-56158000D01*
X134322285Y-56086571D01*
X133750857Y-56086571D01*
X133608000Y-56158000D01*
X133536571Y-56300857D01*
X133536571Y-56586571D01*
X133608000Y-56729428D01*
X133750857Y-56800857D01*
X133893714Y-56800857D01*
X134036571Y-56086571D01*
X134536571Y-57443714D02*
X133536571Y-57443714D01*
X133822285Y-57443714D02*
X133679428Y-57515142D01*
X133608000Y-57586571D01*
X133536571Y-57729428D01*
X133536571Y-57872285D01*
X133750857Y-60015142D02*
X133750857Y-59515142D01*
X134536571Y-59515142D02*
X133036571Y-59515142D01*
X133036571Y-60229428D01*
X134536571Y-61443714D02*
X133750857Y-61443714D01*
X133608000Y-61372285D01*
X133536571Y-61229428D01*
X133536571Y-60943714D01*
X133608000Y-60800857D01*
X134465142Y-61443714D02*
X134536571Y-61300857D01*
X134536571Y-60943714D01*
X134465142Y-60800857D01*
X134322285Y-60729428D01*
X134179428Y-60729428D01*
X134036571Y-60800857D01*
X133965142Y-60943714D01*
X133965142Y-61300857D01*
X133893714Y-61443714D01*
X134465142Y-62800857D02*
X134536571Y-62658000D01*
X134536571Y-62372285D01*
X134465142Y-62229428D01*
X134393714Y-62158000D01*
X134250857Y-62086571D01*
X133822285Y-62086571D01*
X133679428Y-62158000D01*
X133608000Y-62229428D01*
X133536571Y-62372285D01*
X133536571Y-62658000D01*
X133608000Y-62800857D01*
X134465142Y-64015142D02*
X134536571Y-63872285D01*
X134536571Y-63586571D01*
X134465142Y-63443714D01*
X134322285Y-63372285D01*
X133750857Y-63372285D01*
X133608000Y-63443714D01*
X133536571Y-63586571D01*
X133536571Y-63872285D01*
X133608000Y-64015142D01*
X133750857Y-64086571D01*
X133893714Y-64086571D01*
X134036571Y-63372285D01*
X133036571Y-65872285D02*
X134250857Y-65872285D01*
X134393714Y-65943714D01*
X134465142Y-66015142D01*
X134536571Y-66158000D01*
X134536571Y-66443714D01*
X134465142Y-66586571D01*
X134393714Y-66658000D01*
X134250857Y-66729428D01*
X133036571Y-66729428D01*
X133536571Y-67443714D02*
X135036571Y-67443714D01*
X133608000Y-67443714D02*
X133536571Y-67586571D01*
X133536571Y-67872285D01*
X133608000Y-68015142D01*
X133679428Y-68086571D01*
X133822285Y-68158000D01*
X134250857Y-68158000D01*
X134393714Y-68086571D01*
X134465142Y-68015142D01*
X134536571Y-67872285D01*
X134536571Y-67586571D01*
X134465142Y-67443714D01*
D11*
G36*
X79814616Y-68273644D02*
G01*
X79428416Y-68287539D01*
X79070171Y-68314806D01*
X78730660Y-68356768D01*
X78400663Y-68414752D01*
X78070961Y-68490081D01*
X77806120Y-68562296D01*
X77270204Y-68737791D01*
X76752608Y-68947134D01*
X76254542Y-69189439D01*
X75777214Y-69463822D01*
X75321834Y-69769396D01*
X74889609Y-70105277D01*
X74481749Y-70470579D01*
X74099462Y-70864416D01*
X73743958Y-71285902D01*
X73416444Y-71734153D01*
X73358658Y-71820489D01*
X73076631Y-72277132D01*
X72830498Y-72739144D01*
X72618946Y-73210126D01*
X72440667Y-73693675D01*
X72294349Y-74193391D01*
X72178683Y-74712871D01*
X72092358Y-75255715D01*
X72084110Y-75320964D01*
X72069954Y-75467689D01*
X72059174Y-75644977D01*
X72051773Y-75844463D01*
X72047756Y-76057779D01*
X72047128Y-76276558D01*
X72049893Y-76492433D01*
X72056056Y-76697037D01*
X72065621Y-76882003D01*
X72078594Y-77038964D01*
X72083138Y-77079231D01*
X72138295Y-77470522D01*
X72206347Y-77837180D01*
X72290218Y-78192353D01*
X72392833Y-78549192D01*
X72448115Y-78720461D01*
X72640454Y-79236925D01*
X72866558Y-79735103D01*
X73124993Y-80213675D01*
X73414321Y-80671321D01*
X73733106Y-81106722D01*
X74079914Y-81518558D01*
X74453307Y-81905508D01*
X74851849Y-82266253D01*
X75274105Y-82599473D01*
X75718639Y-82903849D01*
X76184014Y-83178059D01*
X76668795Y-83420785D01*
X77171545Y-83630706D01*
X77690829Y-83806503D01*
X78103364Y-83918346D01*
X78539846Y-84010185D01*
X78991856Y-84078959D01*
X79448988Y-84123705D01*
X79900839Y-84143459D01*
X80337004Y-84137257D01*
X80420308Y-84132884D01*
X80975302Y-84080857D01*
X81520556Y-83991630D01*
X82054523Y-83866162D01*
X82575653Y-83705410D01*
X83082398Y-83510332D01*
X83573209Y-83281886D01*
X84046538Y-83021031D01*
X84500835Y-82728725D01*
X84837734Y-82477983D01*
X84591769Y-82477983D01*
X84396385Y-82613207D01*
X84318670Y-82665766D01*
X84229026Y-82724424D01*
X84133169Y-82785668D01*
X84036815Y-82845986D01*
X83945681Y-82901867D01*
X83865482Y-82949797D01*
X83801936Y-82986264D01*
X83760758Y-83007757D01*
X83747715Y-83011766D01*
X83741423Y-82991885D01*
X83727414Y-82940093D01*
X83707257Y-82862437D01*
X83682523Y-82764962D01*
X83655317Y-82655884D01*
X83496170Y-82058526D01*
X83315211Y-81466581D01*
X83138386Y-80954969D01*
X82960302Y-80954969D01*
X82952286Y-80986256D01*
X82930043Y-81046653D01*
X82896286Y-81130054D01*
X82853731Y-81230357D01*
X82805091Y-81341456D01*
X82753082Y-81457247D01*
X82700417Y-81571627D01*
X82649810Y-81678491D01*
X82603976Y-81771735D01*
X82565630Y-81845254D01*
X82559473Y-81856384D01*
X82508833Y-81948352D01*
X82461491Y-82038164D01*
X82415376Y-82130477D01*
X82368419Y-82229945D01*
X82318547Y-82341222D01*
X82263689Y-82468964D01*
X82201775Y-82617824D01*
X82130734Y-82792457D01*
X82048494Y-82997518D01*
X82020550Y-83067621D01*
X81732765Y-83790397D01*
X81667575Y-83804824D01*
X81565210Y-83825845D01*
X81436780Y-83849789D01*
X81294964Y-83874487D01*
X81152439Y-83897765D01*
X81021885Y-83917455D01*
X80961305Y-83925767D01*
X80750071Y-83953393D01*
X80623093Y-83857284D01*
X80533241Y-83790750D01*
X80464010Y-83745118D01*
X80405735Y-83716594D01*
X80348756Y-83701382D01*
X80283407Y-83695689D01*
X80211246Y-83695538D01*
X80100477Y-83703448D01*
X80009294Y-83726951D01*
X79926313Y-83771235D01*
X79840154Y-83841488D01*
X79795077Y-83885200D01*
X79707154Y-83973627D01*
X79475163Y-83966040D01*
X79384437Y-83962598D01*
X79309253Y-83958846D01*
X79257472Y-83955239D01*
X79236970Y-83952251D01*
X79231859Y-83932352D01*
X79219707Y-83877639D01*
X79201212Y-83791521D01*
X79177074Y-83677406D01*
X79147990Y-83538703D01*
X79114660Y-83378818D01*
X79077782Y-83201161D01*
X79038056Y-83009139D01*
X78996179Y-82806161D01*
X78952850Y-82595633D01*
X78908769Y-82380966D01*
X78864634Y-82165565D01*
X78821144Y-81952840D01*
X78778997Y-81746199D01*
X78738892Y-81549049D01*
X78701528Y-81364799D01*
X78667604Y-81196856D01*
X78637818Y-81048629D01*
X78612869Y-80923526D01*
X78593456Y-80824955D01*
X78580277Y-80756323D01*
X78574032Y-80721039D01*
X78573662Y-80716955D01*
X78592860Y-80721657D01*
X78636180Y-80740228D01*
X78679539Y-80761295D01*
X78785002Y-80809904D01*
X78912363Y-80861168D01*
X79050346Y-80911210D01*
X79187675Y-80956151D01*
X79313073Y-80992114D01*
X79415265Y-81015222D01*
X79420684Y-81016161D01*
X79546355Y-81034268D01*
X79697575Y-81051158D01*
X79860816Y-81065713D01*
X80022552Y-81076816D01*
X80169256Y-81083349D01*
X80249115Y-81084615D01*
X80349328Y-81080475D01*
X80462418Y-81067430D01*
X80592996Y-81044546D01*
X80745674Y-81010888D01*
X80925062Y-80965520D01*
X81135771Y-80907508D01*
X81168699Y-80898133D01*
X81357664Y-80841620D01*
X81519152Y-80786920D01*
X81664227Y-80729391D01*
X81803952Y-80664391D01*
X81949390Y-80587276D01*
X82058857Y-80524577D01*
X82217771Y-80428522D01*
X82344848Y-80344704D01*
X82444145Y-80269920D01*
X82519719Y-80200965D01*
X82575630Y-80134633D01*
X82600019Y-80097172D01*
X82610761Y-80087698D01*
X82624685Y-80096384D01*
X82644450Y-80127584D01*
X82672715Y-80185653D01*
X82712138Y-80274944D01*
X82720691Y-80294824D01*
X82772643Y-80418999D01*
X82822455Y-80543764D01*
X82867863Y-80662875D01*
X82906599Y-80770089D01*
X82936399Y-80859164D01*
X82954996Y-80923857D01*
X82960302Y-80954969D01*
X83138386Y-80954969D01*
X83109813Y-80872301D01*
X82877345Y-80267939D01*
X82746530Y-79953315D01*
X78193419Y-79953315D01*
X78192603Y-80122617D01*
X78190721Y-80318123D01*
X78187833Y-80541779D01*
X78183997Y-80795532D01*
X78179273Y-81081326D01*
X78173719Y-81401108D01*
X78167393Y-81756824D01*
X78163165Y-81993154D01*
X78158754Y-82240734D01*
X78154547Y-82478701D01*
X78150597Y-82703918D01*
X78146958Y-82913248D01*
X78143684Y-83103552D01*
X78140827Y-83271695D01*
X78138443Y-83414539D01*
X78136583Y-83528946D01*
X78135302Y-83611779D01*
X78134653Y-83659902D01*
X78134583Y-83668577D01*
X78130563Y-83722936D01*
X78120619Y-83756274D01*
X78113900Y-83761384D01*
X78085666Y-83756890D01*
X78031468Y-83745120D01*
X77964625Y-83729014D01*
X77835756Y-83696643D01*
X77848213Y-83352898D01*
X77850587Y-83282374D01*
X77853909Y-83176212D01*
X77858081Y-83037837D01*
X77863003Y-82870674D01*
X77868579Y-82678149D01*
X77874711Y-82463686D01*
X77881300Y-82230710D01*
X77888249Y-81982648D01*
X77895459Y-81722923D01*
X77902833Y-81454961D01*
X77910270Y-81182307D01*
X77917534Y-80917823D01*
X77924664Y-80664003D01*
X77931574Y-80423628D01*
X77938177Y-80199481D01*
X77944385Y-79994342D01*
X77945695Y-79952364D01*
X76453081Y-79952364D01*
X76286763Y-81021605D01*
X76253753Y-81232052D01*
X76220702Y-81439438D01*
X76188414Y-81638946D01*
X76157689Y-81825762D01*
X76129330Y-81995070D01*
X76104138Y-82142053D01*
X76082915Y-82261896D01*
X76066463Y-82349784D01*
X76061556Y-82374154D01*
X76038650Y-82484371D01*
X76016678Y-82590127D01*
X75997777Y-82681142D01*
X75984080Y-82747136D01*
X75981405Y-82760038D01*
X75967156Y-82816994D01*
X75953150Y-82854240D01*
X75945722Y-82862615D01*
X75925368Y-82852290D01*
X75878431Y-82823760D01*
X75810713Y-82780693D01*
X75728012Y-82726754D01*
X75669996Y-82688287D01*
X75575601Y-82623917D01*
X75473610Y-82551992D01*
X75369094Y-82476351D01*
X75267125Y-82400831D01*
X75172775Y-82329268D01*
X75091113Y-82265500D01*
X75027211Y-82213363D01*
X74986141Y-82176696D01*
X74973092Y-82160969D01*
X74975263Y-82138391D01*
X74984098Y-82082130D01*
X74998766Y-81996853D01*
X75018433Y-81887230D01*
X75042269Y-81757928D01*
X75069441Y-81613616D01*
X75087028Y-81521622D01*
X75121955Y-81332516D01*
X75159347Y-81117110D01*
X75197184Y-80887927D01*
X75233445Y-80657485D01*
X75266112Y-80438305D01*
X75292702Y-80246439D01*
X75313301Y-80091428D01*
X75332539Y-79949166D01*
X75349779Y-79824189D01*
X75364380Y-79721029D01*
X75369749Y-79684608D01*
X75203537Y-79684608D01*
X75200447Y-79731128D01*
X75191689Y-79811123D01*
X75178024Y-79919520D01*
X75160211Y-80051249D01*
X75139011Y-80201239D01*
X75115183Y-80364418D01*
X75089488Y-80535717D01*
X75062685Y-80710063D01*
X75035535Y-80882387D01*
X75008798Y-81047616D01*
X74983232Y-81200680D01*
X74959600Y-81336508D01*
X74939956Y-81443263D01*
X74912617Y-81587106D01*
X74887835Y-81718758D01*
X74866524Y-81833255D01*
X74849602Y-81925631D01*
X74837982Y-81990923D01*
X74832581Y-82024165D01*
X74832308Y-82027021D01*
X74819393Y-82025459D01*
X74785579Y-82002045D01*
X74739500Y-81963004D01*
X74690806Y-81919109D01*
X74655079Y-81887213D01*
X74640800Y-81874840D01*
X74642720Y-81855338D01*
X74651125Y-81802472D01*
X74665133Y-81721253D01*
X74683859Y-81616694D01*
X74706420Y-81493807D01*
X74731933Y-81357603D01*
X74732327Y-81355517D01*
X74763898Y-81181722D01*
X74797853Y-80982973D01*
X74831965Y-80773118D01*
X74864005Y-80566008D01*
X74891745Y-80375491D01*
X74901668Y-80303077D01*
X74920857Y-80162480D01*
X74939006Y-80034676D01*
X74955337Y-79924754D01*
X74969069Y-79837802D01*
X74979423Y-79778908D01*
X74985620Y-79753162D01*
X74985987Y-79752601D01*
X75014748Y-79734040D01*
X75062076Y-79713828D01*
X75116152Y-79695659D01*
X75165161Y-79683225D01*
X75197283Y-79680221D01*
X75203537Y-79684608D01*
X75369749Y-79684608D01*
X75375703Y-79644222D01*
X75383110Y-79598302D01*
X75385684Y-79586880D01*
X75407562Y-79579696D01*
X75460649Y-79567100D01*
X75538281Y-79550370D01*
X75633795Y-79530785D01*
X75740525Y-79509621D01*
X75851808Y-79488157D01*
X75960980Y-79467672D01*
X76061377Y-79449443D01*
X76146335Y-79434747D01*
X76209190Y-79424864D01*
X76243277Y-79421071D01*
X76247423Y-79421618D01*
X76256701Y-79443279D01*
X76277148Y-79494574D01*
X76306058Y-79568609D01*
X76340724Y-79658488D01*
X76353936Y-79692990D01*
X76453081Y-79952364D01*
X77945695Y-79952364D01*
X77950111Y-79810993D01*
X77955269Y-79652216D01*
X77959770Y-79520792D01*
X77963528Y-79419502D01*
X77966456Y-79351128D01*
X77968466Y-79318452D01*
X77968763Y-79316384D01*
X77986842Y-79262345D01*
X78015130Y-79241223D01*
X78064225Y-79246865D01*
X78080395Y-79251552D01*
X78098769Y-79257282D01*
X78115314Y-79263919D01*
X78130089Y-79273409D01*
X78143154Y-79287698D01*
X78154565Y-79308731D01*
X78164383Y-79338455D01*
X78172666Y-79378815D01*
X78179473Y-79431757D01*
X78184862Y-79499228D01*
X78188893Y-79583173D01*
X78191623Y-79685539D01*
X78193113Y-79808271D01*
X78193419Y-79953315D01*
X82746530Y-79953315D01*
X82701365Y-79844691D01*
X82635124Y-79689723D01*
X82573217Y-79544638D01*
X82517452Y-79413696D01*
X82469640Y-79301157D01*
X82431590Y-79211281D01*
X82405112Y-79148328D01*
X82392015Y-79116558D01*
X82391463Y-79115135D01*
X82382590Y-79086236D01*
X82391474Y-79075238D01*
X82426513Y-79077716D01*
X82453961Y-79082202D01*
X82513642Y-79085712D01*
X82594572Y-79082110D01*
X82679730Y-79072185D01*
X82683719Y-79071549D01*
X82762573Y-79060805D01*
X82831870Y-79057397D01*
X82906025Y-79061645D01*
X82999455Y-79073868D01*
X83034630Y-79079334D01*
X83150796Y-79100029D01*
X83238251Y-79122641D01*
X83307267Y-79151792D01*
X83368117Y-79192109D01*
X83431072Y-79248216D01*
X83448951Y-79265859D01*
X83499177Y-79327422D01*
X83559043Y-79419160D01*
X83625107Y-79534426D01*
X83693930Y-79666572D01*
X83762071Y-79808953D01*
X83826090Y-79954920D01*
X83882545Y-80097827D01*
X83889740Y-80117461D01*
X83944830Y-80272487D01*
X84004066Y-80444695D01*
X84066206Y-80630035D01*
X84130006Y-80824457D01*
X84194224Y-81023909D01*
X84257618Y-81224343D01*
X84318945Y-81421707D01*
X84376963Y-81611952D01*
X84430428Y-81791026D01*
X84478099Y-81954880D01*
X84518732Y-82099463D01*
X84551085Y-82220725D01*
X84573917Y-82314615D01*
X84585983Y-82377084D01*
X84587493Y-82391876D01*
X84591769Y-82477983D01*
X84837734Y-82477983D01*
X84934552Y-82405925D01*
X85121645Y-82245765D01*
X84874016Y-82245765D01*
X84832064Y-82290421D01*
X84795996Y-82321931D01*
X84768097Y-82335077D01*
X84768056Y-82335077D01*
X84754550Y-82317316D01*
X84735789Y-82269437D01*
X84714641Y-82199543D01*
X84700600Y-82144577D01*
X84639533Y-81905573D01*
X84562580Y-81634574D01*
X84469374Y-81330318D01*
X84406207Y-81133461D01*
X84360066Y-80990366D01*
X84308910Y-80829391D01*
X84257685Y-80666237D01*
X84211334Y-80516605D01*
X84191491Y-80451629D01*
X84137173Y-80287035D01*
X84068594Y-80101410D01*
X83990563Y-79906344D01*
X83907895Y-79713427D01*
X83825401Y-79534249D01*
X83747893Y-79380400D01*
X83742731Y-79370791D01*
X83687722Y-79268890D01*
X83758746Y-79298470D01*
X83877162Y-79361555D01*
X83964940Y-79441138D01*
X84000599Y-79490607D01*
X84044752Y-79572641D01*
X84096959Y-79688573D01*
X84155896Y-79834366D01*
X84220240Y-80005983D01*
X84288668Y-80199386D01*
X84359857Y-80410537D01*
X84432484Y-80635400D01*
X84505225Y-80869938D01*
X84576758Y-81110112D01*
X84645759Y-81351886D01*
X84710905Y-81591223D01*
X84770873Y-81824085D01*
X84787708Y-81892287D01*
X84874016Y-82245765D01*
X85121645Y-82245765D01*
X85346140Y-82053589D01*
X85734051Y-81672676D01*
X86096736Y-81264143D01*
X86432647Y-80828948D01*
X86740234Y-80368050D01*
X86876794Y-80138957D01*
X87131745Y-79655927D01*
X87351237Y-79158223D01*
X87535101Y-78647952D01*
X87683171Y-78127217D01*
X87795278Y-77598125D01*
X87871255Y-77062779D01*
X87910933Y-76523285D01*
X87912851Y-76200000D01*
X87755730Y-76200000D01*
X87751517Y-76531330D01*
X87737677Y-76834922D01*
X87712956Y-77121208D01*
X87676098Y-77400620D01*
X87625848Y-77683590D01*
X87560951Y-77980550D01*
X87522543Y-78137833D01*
X87406366Y-78543510D01*
X87261341Y-78956339D01*
X87091351Y-79367753D01*
X86900281Y-79769182D01*
X86692016Y-80152058D01*
X86470441Y-80507812D01*
X86403931Y-80605140D01*
X86301322Y-80752033D01*
X86101084Y-80549805D01*
X86007674Y-80458025D01*
X85931964Y-80390283D01*
X85866554Y-80340664D01*
X85804046Y-80303256D01*
X85773846Y-80288343D01*
X85588949Y-80201551D01*
X85436348Y-80128547D01*
X85312542Y-80067445D01*
X85214030Y-80016363D01*
X85137312Y-79973414D01*
X85078886Y-79936716D01*
X85035253Y-79904383D01*
X85002910Y-79874531D01*
X85000692Y-79872180D01*
X84899676Y-79768444D01*
X84802191Y-79679330D01*
X84700612Y-79599404D01*
X84587309Y-79523236D01*
X84454656Y-79445390D01*
X84295025Y-79360435D01*
X84249846Y-79337367D01*
X83990246Y-79213699D01*
X83737811Y-79109144D01*
X83496122Y-79024653D01*
X83268756Y-78961176D01*
X83059292Y-78919666D01*
X82871309Y-78901073D01*
X82708385Y-78906349D01*
X82657462Y-78914102D01*
X82600709Y-78922862D01*
X82545367Y-78925691D01*
X82481343Y-78922048D01*
X82398545Y-78911393D01*
X82296000Y-78894741D01*
X82200642Y-78877780D01*
X82117800Y-78861719D01*
X82055937Y-78848290D01*
X82023518Y-78839227D01*
X82022462Y-78838749D01*
X81996038Y-78813969D01*
X81962454Y-78767531D01*
X81946450Y-78740791D01*
X81929788Y-78708979D01*
X81917620Y-78677654D01*
X81909228Y-78640165D01*
X81903890Y-78589863D01*
X81900885Y-78520098D01*
X81899494Y-78424221D01*
X81899011Y-78302951D01*
X81899835Y-78152951D01*
X81903521Y-78031165D01*
X81910847Y-77926785D01*
X81922591Y-77829003D01*
X81939531Y-77727013D01*
X81941070Y-77718694D01*
X81956508Y-77637483D01*
X81970882Y-77569253D01*
X81986474Y-77507338D01*
X82005566Y-77445072D01*
X82030443Y-77375787D01*
X82063386Y-77292818D01*
X82106679Y-77189499D01*
X82162604Y-77059161D01*
X82183459Y-77010846D01*
X82231568Y-76898581D01*
X82278985Y-76786375D01*
X82321369Y-76684611D01*
X82354375Y-76603671D01*
X82364874Y-76577160D01*
X82393890Y-76506225D01*
X82414999Y-76466135D01*
X82432736Y-76450694D01*
X82451638Y-76453705D01*
X82454261Y-76455045D01*
X82502251Y-76467699D01*
X82575085Y-76472379D01*
X82659353Y-76469087D01*
X82741645Y-76457826D01*
X82755154Y-76454967D01*
X82803043Y-76438102D01*
X82851979Y-76405988D01*
X82910265Y-76352396D01*
X82955813Y-76304489D01*
X83022763Y-76228558D01*
X83074085Y-76160026D01*
X83114444Y-76089516D01*
X83148503Y-76007650D01*
X83180924Y-75905051D01*
X83212022Y-75789321D01*
X83253470Y-75591025D01*
X83284423Y-75362098D01*
X83304147Y-75109748D01*
X83311908Y-74841183D01*
X83312000Y-74808085D01*
X83311022Y-74703494D01*
X83307248Y-74628561D01*
X83299423Y-74573901D01*
X83286290Y-74530125D01*
X83270030Y-74494491D01*
X83256518Y-74466608D01*
X83246526Y-74439388D01*
X83239789Y-74407156D01*
X83236040Y-74364239D01*
X83235015Y-74304963D01*
X83236447Y-74223653D01*
X83240071Y-74114637D01*
X83245607Y-73972615D01*
X83250669Y-73820589D01*
X83254970Y-73642345D01*
X83258301Y-73450739D01*
X83260455Y-73258625D01*
X83261223Y-73078860D01*
X83261172Y-73051659D01*
X83108745Y-73051659D01*
X83107597Y-73149993D01*
X83103458Y-73269382D01*
X83097230Y-73405585D01*
X83089177Y-73552523D01*
X83079064Y-73707262D01*
X83067770Y-73858050D01*
X83056175Y-73993137D01*
X83045293Y-74099606D01*
X83031843Y-74210425D01*
X83020293Y-74288816D01*
X83009075Y-74341272D01*
X82996619Y-74374290D01*
X82981356Y-74394362D01*
X82972349Y-74401458D01*
X82939430Y-74427740D01*
X82887937Y-74472949D01*
X82827285Y-74528745D01*
X82806922Y-74548005D01*
X82721511Y-74635315D01*
X82662913Y-74710956D01*
X82624809Y-74783981D01*
X82608633Y-74832181D01*
X82600149Y-74853440D01*
X82592803Y-74845056D01*
X82584764Y-74803211D01*
X82580601Y-74773692D01*
X82553124Y-74621796D01*
X82510248Y-74450791D01*
X82455061Y-74269008D01*
X82390649Y-74084776D01*
X82320100Y-73906424D01*
X82246500Y-73742282D01*
X82172937Y-73600681D01*
X82107278Y-73496544D01*
X82049367Y-73421805D01*
X81974119Y-73333419D01*
X81888286Y-73238463D01*
X81798622Y-73144016D01*
X81711882Y-73057154D01*
X81634819Y-72984955D01*
X81574187Y-72934497D01*
X81563975Y-72927189D01*
X81442892Y-72859407D01*
X81296973Y-72802335D01*
X81140094Y-72761338D01*
X81130277Y-72759439D01*
X81057253Y-72751198D01*
X80970745Y-72753211D01*
X80859710Y-72765842D01*
X80837200Y-72769132D01*
X80741573Y-72783187D01*
X80648288Y-72796437D01*
X80572141Y-72806798D01*
X80547308Y-72809975D01*
X80485606Y-72818973D01*
X80399275Y-72833352D01*
X80301995Y-72850779D01*
X80244462Y-72861649D01*
X80149748Y-72876899D01*
X80029210Y-72891819D01*
X79896086Y-72905001D01*
X79763614Y-72915040D01*
X79716923Y-72917701D01*
X79570927Y-72927440D01*
X79416557Y-72941775D01*
X79260376Y-72959725D01*
X79108948Y-72980309D01*
X78968833Y-73002548D01*
X78846596Y-73025461D01*
X78748798Y-73048067D01*
X78682003Y-73069386D01*
X78672184Y-73073775D01*
X78613936Y-73108062D01*
X78536032Y-73164242D01*
X78436155Y-73244115D01*
X78311988Y-73349484D01*
X78265432Y-73390031D01*
X78210567Y-73450298D01*
X78169500Y-73526177D01*
X78139342Y-73625052D01*
X78117199Y-73754305D01*
X78114583Y-73775170D01*
X78096925Y-73921544D01*
X78082654Y-74035784D01*
X78070091Y-74124503D01*
X78057559Y-74194314D01*
X78043379Y-74251829D01*
X78025872Y-74303663D01*
X78003361Y-74356429D01*
X77974166Y-74416738D01*
X77936610Y-74491205D01*
X77929054Y-74506183D01*
X77877711Y-74609826D01*
X77842197Y-74687154D01*
X77819693Y-74746190D01*
X77807382Y-74794962D01*
X77802446Y-74841495D01*
X77801855Y-74868448D01*
X77799643Y-74930237D01*
X77793032Y-74955744D01*
X77782616Y-74949538D01*
X77765759Y-74910299D01*
X77763376Y-74894925D01*
X77751919Y-74864153D01*
X77722060Y-74811865D01*
X77679965Y-74746935D01*
X77631798Y-74678238D01*
X77583724Y-74614647D01*
X77541907Y-74565035D01*
X77518511Y-74542458D01*
X77450721Y-74502410D01*
X77364848Y-74469397D01*
X77277611Y-74448628D01*
X77206380Y-74445229D01*
X77140673Y-74452900D01*
X77126781Y-74286123D01*
X77118893Y-74085885D01*
X77125535Y-73850407D01*
X77146616Y-73580683D01*
X77182043Y-73277712D01*
X77231725Y-72942488D01*
X77274277Y-72692846D01*
X77301966Y-72569422D01*
X77342881Y-72428309D01*
X77393695Y-72277997D01*
X77451081Y-72126975D01*
X77511712Y-71983733D01*
X77572260Y-71856760D01*
X77629399Y-71754545D01*
X77659300Y-71710438D01*
X77689343Y-71677796D01*
X77743964Y-71625600D01*
X77817469Y-71559006D01*
X77904167Y-71483173D01*
X77998364Y-71403258D01*
X77998540Y-71403111D01*
X78122355Y-71301700D01*
X78225949Y-71221927D01*
X78317208Y-71158278D01*
X78404015Y-71105242D01*
X78490434Y-71059219D01*
X78586372Y-71008747D01*
X78683469Y-70953702D01*
X78767934Y-70902081D01*
X78809475Y-70874191D01*
X78879700Y-70828506D01*
X78971081Y-70775126D01*
X79069108Y-70722333D01*
X79121666Y-70696031D01*
X79206259Y-70655688D01*
X79269802Y-70628731D01*
X79324800Y-70612160D01*
X79383753Y-70602970D01*
X79459167Y-70598160D01*
X79540653Y-70595422D01*
X79683119Y-70594586D01*
X79857929Y-70599239D01*
X80058814Y-70608853D01*
X80279505Y-70622901D01*
X80513735Y-70640855D01*
X80755235Y-70662187D01*
X80997738Y-70686368D01*
X81234976Y-70712871D01*
X81460681Y-70741168D01*
X81668584Y-70770731D01*
X81723248Y-70779243D01*
X81796592Y-70804654D01*
X81886364Y-70857903D01*
X81986777Y-70934684D01*
X82092040Y-71030688D01*
X82169329Y-71111215D01*
X82248285Y-71194260D01*
X82336496Y-71280878D01*
X82420564Y-71358150D01*
X82462188Y-71393629D01*
X82521011Y-71443512D01*
X82570909Y-71491379D01*
X82616394Y-71543377D01*
X82661975Y-71605652D01*
X82712161Y-71684352D01*
X82771462Y-71785623D01*
X82841999Y-71911307D01*
X82906119Y-72031728D01*
X82955922Y-72139175D01*
X82994451Y-72243549D01*
X83024746Y-72354753D01*
X83049848Y-72482686D01*
X83072797Y-72637251D01*
X83078633Y-72681831D01*
X83091848Y-72789465D01*
X83101111Y-72880747D01*
X83106663Y-72965027D01*
X83108745Y-73051659D01*
X83261172Y-73051659D01*
X83261103Y-73015231D01*
X83259902Y-72836151D01*
X83257062Y-72689783D01*
X83251381Y-72569761D01*
X83241657Y-72469721D01*
X83226689Y-72383300D01*
X83205275Y-72304133D01*
X83176212Y-72225857D01*
X83138299Y-72142108D01*
X83090333Y-72046522D01*
X83071151Y-72009483D01*
X83022132Y-71913305D01*
X82976659Y-71820645D01*
X82939528Y-71741495D01*
X82915533Y-71685850D01*
X82914073Y-71682050D01*
X82872715Y-71596889D01*
X82810711Y-71510074D01*
X82723805Y-71416645D01*
X82607744Y-71311644D01*
X82566906Y-71277395D01*
X82487541Y-71207374D01*
X82410539Y-71131876D01*
X82346875Y-71062008D01*
X82318897Y-71026366D01*
X82214444Y-70891064D01*
X82113804Y-70788285D01*
X82009302Y-70713201D01*
X81893263Y-70660986D01*
X81758014Y-70626813D01*
X81661000Y-70612551D01*
X81487266Y-70589939D01*
X81291363Y-70560774D01*
X81089152Y-70527502D01*
X80957616Y-70504053D01*
X80879269Y-70492523D01*
X80772304Y-70480896D01*
X80647162Y-70470094D01*
X80514290Y-70461041D01*
X80410539Y-70455723D01*
X80280900Y-70449253D01*
X80152568Y-70441201D01*
X80035417Y-70432306D01*
X79939322Y-70423305D01*
X79883000Y-70416336D01*
X79657214Y-70400065D01*
X79436508Y-70420517D01*
X79218653Y-70478259D01*
X79001416Y-70573857D01*
X78810935Y-70688433D01*
X78721213Y-70744976D01*
X78620432Y-70802417D01*
X78528370Y-70849561D01*
X78516519Y-70855060D01*
X78441169Y-70890900D01*
X78372209Y-70927773D01*
X78303638Y-70969828D01*
X78229454Y-71021212D01*
X78143658Y-71086073D01*
X78040249Y-71168560D01*
X77918625Y-71268354D01*
X77790557Y-71375335D01*
X77688155Y-71464956D01*
X77606365Y-71544007D01*
X77540133Y-71619279D01*
X77484407Y-71697564D01*
X77434131Y-71785652D01*
X77384252Y-71890335D01*
X77329717Y-72018403D01*
X77292471Y-72109756D01*
X77252271Y-72210530D01*
X77218996Y-72298697D01*
X77191126Y-72380542D01*
X77167138Y-72462350D01*
X77145512Y-72550404D01*
X77124728Y-72650990D01*
X77103263Y-72770393D01*
X77079597Y-72914896D01*
X77052208Y-73090785D01*
X77047313Y-73122692D01*
X77027406Y-73255110D01*
X77011459Y-73369165D01*
X76998868Y-73472486D01*
X76989031Y-73572705D01*
X76981343Y-73677453D01*
X76975203Y-73794358D01*
X76970006Y-73931053D01*
X76965149Y-74095168D01*
X76962521Y-74195303D01*
X76959040Y-74357405D01*
X76956871Y-74515578D01*
X76956014Y-74663258D01*
X76956466Y-74793884D01*
X76958226Y-74900893D01*
X76961293Y-74977722D01*
X76962686Y-74996380D01*
X76977604Y-75131161D01*
X76998468Y-75278336D01*
X77023400Y-75427360D01*
X77050520Y-75567688D01*
X77077949Y-75688775D01*
X77100566Y-75770154D01*
X77161027Y-75926521D01*
X77240518Y-76081792D01*
X77333906Y-76228796D01*
X77436060Y-76360359D01*
X77541848Y-76469311D01*
X77646137Y-76548479D01*
X77665500Y-76559638D01*
X77731693Y-76592121D01*
X77785493Y-76606440D01*
X77846552Y-76606797D01*
X77874390Y-76604286D01*
X77944110Y-76592394D01*
X78004399Y-76574181D01*
X78027672Y-76562717D01*
X78049178Y-76549338D01*
X78066191Y-76544734D01*
X78081646Y-76553590D01*
X78098479Y-76580596D01*
X78119622Y-76630436D01*
X78148012Y-76707799D01*
X78185912Y-76815461D01*
X78261308Y-77030384D01*
X78260984Y-77421154D01*
X78260289Y-77564577D01*
X78257915Y-77679085D01*
X78253026Y-77774826D01*
X78244789Y-77861952D01*
X78232370Y-77950614D01*
X78214934Y-78050962D01*
X78204779Y-78105000D01*
X78184201Y-78210122D01*
X78164850Y-78303914D01*
X78148410Y-78378566D01*
X78136569Y-78426266D01*
X78133071Y-78437154D01*
X78117246Y-78476231D01*
X78115899Y-78437154D01*
X78102352Y-78352021D01*
X78071120Y-78270902D01*
X78027570Y-78201390D01*
X77977065Y-78151077D01*
X77924970Y-78127556D01*
X77897961Y-78128694D01*
X77837116Y-78153740D01*
X77758004Y-78200155D01*
X77669922Y-78261615D01*
X77582169Y-78331791D01*
X77529126Y-78379642D01*
X77484082Y-78420582D01*
X77440090Y-78454417D01*
X77389727Y-78485152D01*
X77325567Y-78516792D01*
X77240186Y-78553342D01*
X77126160Y-78598806D01*
X77114038Y-78603551D01*
X76981649Y-78656934D01*
X76876426Y-78703753D01*
X76788269Y-78749195D01*
X76707074Y-78798448D01*
X76626977Y-78853643D01*
X76505672Y-78943389D01*
X76415156Y-79016349D01*
X76352460Y-79075423D01*
X76314618Y-79123509D01*
X76298662Y-79163508D01*
X76297693Y-79175273D01*
X76294361Y-79205470D01*
X76279178Y-79225559D01*
X76244357Y-79239669D01*
X76182114Y-79251931D01*
X76141385Y-79258199D01*
X76040322Y-79275564D01*
X75911716Y-79301215D01*
X75764463Y-79333047D01*
X75607462Y-79368954D01*
X75449608Y-79406830D01*
X75299800Y-79444571D01*
X75166933Y-79480071D01*
X75059906Y-79511224D01*
X75025543Y-79522257D01*
X74830922Y-79593030D01*
X74640033Y-79673131D01*
X74462925Y-79757916D01*
X74309647Y-79842746D01*
X74250003Y-79880441D01*
X74119561Y-79981005D01*
X73981686Y-80114600D01*
X73834665Y-80282958D01*
X73762728Y-80373542D01*
X73688272Y-80467800D01*
X73632615Y-80533103D01*
X73592455Y-80572725D01*
X73564492Y-80589937D01*
X73545982Y-80588370D01*
X73522994Y-80563185D01*
X73484640Y-80508746D01*
X73433993Y-80430251D01*
X73374128Y-80332898D01*
X73308119Y-80221883D01*
X73239040Y-80102406D01*
X73169966Y-79979663D01*
X73103970Y-79858852D01*
X73044128Y-79745171D01*
X73024765Y-79707154D01*
X72820022Y-79270696D01*
X72646220Y-78833274D01*
X72501307Y-78388087D01*
X72383228Y-77928339D01*
X72289933Y-77447229D01*
X72240135Y-77108538D01*
X72229379Y-77016976D01*
X72220933Y-76922985D01*
X72214568Y-76820529D01*
X72210055Y-76703572D01*
X72207167Y-76566078D01*
X72205675Y-76402011D01*
X72205349Y-76205336D01*
X72205364Y-76190231D01*
X72206298Y-75974547D01*
X72208966Y-75790349D01*
X72213960Y-75630064D01*
X72221876Y-75486117D01*
X72233308Y-75350934D01*
X72248850Y-75216942D01*
X72269095Y-75076565D01*
X72294638Y-74922231D01*
X72312944Y-74818724D01*
X72428116Y-74286972D01*
X72579263Y-73768383D01*
X72765074Y-73264476D01*
X72984242Y-72776770D01*
X73235457Y-72306783D01*
X73517411Y-71856035D01*
X73828794Y-71426044D01*
X74168297Y-71018329D01*
X74534612Y-70634410D01*
X74926429Y-70275805D01*
X75342440Y-69944032D01*
X75781335Y-69640612D01*
X76241806Y-69367062D01*
X76722544Y-69124902D01*
X77222239Y-68915650D01*
X77479532Y-68823588D01*
X77976609Y-68673711D01*
X78478231Y-68558959D01*
X78988103Y-68478816D01*
X79509930Y-68432765D01*
X80047418Y-68420290D01*
X80327246Y-68426632D01*
X80863272Y-68465780D01*
X81389952Y-68541950D01*
X81905859Y-68653899D01*
X82409563Y-68800382D01*
X82899637Y-68980155D01*
X83374652Y-69191974D01*
X83833179Y-69434596D01*
X84273789Y-69706775D01*
X84695055Y-70007268D01*
X85095547Y-70334831D01*
X85473837Y-70688219D01*
X85828497Y-71066189D01*
X86158097Y-71467496D01*
X86461210Y-71890897D01*
X86736406Y-72335147D01*
X86982258Y-72799002D01*
X87197336Y-73281218D01*
X87380212Y-73780550D01*
X87529458Y-74295756D01*
X87637775Y-74793231D01*
X87672870Y-74993628D01*
X87700601Y-75175653D01*
X87721733Y-75348437D01*
X87737032Y-75521112D01*
X87747264Y-75702812D01*
X87753194Y-75902666D01*
X87755589Y-76129809D01*
X87755730Y-76200000D01*
X87912851Y-76200000D01*
X87914147Y-75981747D01*
X87880726Y-75440271D01*
X87810505Y-74900962D01*
X87703316Y-74365924D01*
X87558989Y-73837262D01*
X87412848Y-73410086D01*
X87203432Y-72905541D01*
X86960503Y-72419263D01*
X86685657Y-71952673D01*
X86380491Y-71507189D01*
X86046601Y-71084230D01*
X85685584Y-70685215D01*
X85299036Y-70311562D01*
X84888553Y-69964691D01*
X84455731Y-69646021D01*
X84002168Y-69356970D01*
X83529459Y-69098957D01*
X83039201Y-68873402D01*
X82532990Y-68681722D01*
X82012423Y-68525338D01*
X81879190Y-68491672D01*
X81543660Y-68416215D01*
X81223734Y-68357749D01*
X80909257Y-68315200D01*
X80590074Y-68287496D01*
X80256030Y-68273566D01*
X79896970Y-68272335D01*
X79814616Y-68273644D01*
G37*
X79814616Y-68273644D02*
X79428416Y-68287539D01*
X79070171Y-68314806D01*
X78730660Y-68356768D01*
X78400663Y-68414752D01*
X78070961Y-68490081D01*
X77806120Y-68562296D01*
X77270204Y-68737791D01*
X76752608Y-68947134D01*
X76254542Y-69189439D01*
X75777214Y-69463822D01*
X75321834Y-69769396D01*
X74889609Y-70105277D01*
X74481749Y-70470579D01*
X74099462Y-70864416D01*
X73743958Y-71285902D01*
X73416444Y-71734153D01*
X73358658Y-71820489D01*
X73076631Y-72277132D01*
X72830498Y-72739144D01*
X72618946Y-73210126D01*
X72440667Y-73693675D01*
X72294349Y-74193391D01*
X72178683Y-74712871D01*
X72092358Y-75255715D01*
X72084110Y-75320964D01*
X72069954Y-75467689D01*
X72059174Y-75644977D01*
X72051773Y-75844463D01*
X72047756Y-76057779D01*
X72047128Y-76276558D01*
X72049893Y-76492433D01*
X72056056Y-76697037D01*
X72065621Y-76882003D01*
X72078594Y-77038964D01*
X72083138Y-77079231D01*
X72138295Y-77470522D01*
X72206347Y-77837180D01*
X72290218Y-78192353D01*
X72392833Y-78549192D01*
X72448115Y-78720461D01*
X72640454Y-79236925D01*
X72866558Y-79735103D01*
X73124993Y-80213675D01*
X73414321Y-80671321D01*
X73733106Y-81106722D01*
X74079914Y-81518558D01*
X74453307Y-81905508D01*
X74851849Y-82266253D01*
X75274105Y-82599473D01*
X75718639Y-82903849D01*
X76184014Y-83178059D01*
X76668795Y-83420785D01*
X77171545Y-83630706D01*
X77690829Y-83806503D01*
X78103364Y-83918346D01*
X78539846Y-84010185D01*
X78991856Y-84078959D01*
X79448988Y-84123705D01*
X79900839Y-84143459D01*
X80337004Y-84137257D01*
X80420308Y-84132884D01*
X80975302Y-84080857D01*
X81520556Y-83991630D01*
X82054523Y-83866162D01*
X82575653Y-83705410D01*
X83082398Y-83510332D01*
X83573209Y-83281886D01*
X84046538Y-83021031D01*
X84500835Y-82728725D01*
X84837734Y-82477983D01*
X84591769Y-82477983D01*
X84396385Y-82613207D01*
X84318670Y-82665766D01*
X84229026Y-82724424D01*
X84133169Y-82785668D01*
X84036815Y-82845986D01*
X83945681Y-82901867D01*
X83865482Y-82949797D01*
X83801936Y-82986264D01*
X83760758Y-83007757D01*
X83747715Y-83011766D01*
X83741423Y-82991885D01*
X83727414Y-82940093D01*
X83707257Y-82862437D01*
X83682523Y-82764962D01*
X83655317Y-82655884D01*
X83496170Y-82058526D01*
X83315211Y-81466581D01*
X83138386Y-80954969D01*
X82960302Y-80954969D01*
X82952286Y-80986256D01*
X82930043Y-81046653D01*
X82896286Y-81130054D01*
X82853731Y-81230357D01*
X82805091Y-81341456D01*
X82753082Y-81457247D01*
X82700417Y-81571627D01*
X82649810Y-81678491D01*
X82603976Y-81771735D01*
X82565630Y-81845254D01*
X82559473Y-81856384D01*
X82508833Y-81948352D01*
X82461491Y-82038164D01*
X82415376Y-82130477D01*
X82368419Y-82229945D01*
X82318547Y-82341222D01*
X82263689Y-82468964D01*
X82201775Y-82617824D01*
X82130734Y-82792457D01*
X82048494Y-82997518D01*
X82020550Y-83067621D01*
X81732765Y-83790397D01*
X81667575Y-83804824D01*
X81565210Y-83825845D01*
X81436780Y-83849789D01*
X81294964Y-83874487D01*
X81152439Y-83897765D01*
X81021885Y-83917455D01*
X80961305Y-83925767D01*
X80750071Y-83953393D01*
X80623093Y-83857284D01*
X80533241Y-83790750D01*
X80464010Y-83745118D01*
X80405735Y-83716594D01*
X80348756Y-83701382D01*
X80283407Y-83695689D01*
X80211246Y-83695538D01*
X80100477Y-83703448D01*
X80009294Y-83726951D01*
X79926313Y-83771235D01*
X79840154Y-83841488D01*
X79795077Y-83885200D01*
X79707154Y-83973627D01*
X79475163Y-83966040D01*
X79384437Y-83962598D01*
X79309253Y-83958846D01*
X79257472Y-83955239D01*
X79236970Y-83952251D01*
X79231859Y-83932352D01*
X79219707Y-83877639D01*
X79201212Y-83791521D01*
X79177074Y-83677406D01*
X79147990Y-83538703D01*
X79114660Y-83378818D01*
X79077782Y-83201161D01*
X79038056Y-83009139D01*
X78996179Y-82806161D01*
X78952850Y-82595633D01*
X78908769Y-82380966D01*
X78864634Y-82165565D01*
X78821144Y-81952840D01*
X78778997Y-81746199D01*
X78738892Y-81549049D01*
X78701528Y-81364799D01*
X78667604Y-81196856D01*
X78637818Y-81048629D01*
X78612869Y-80923526D01*
X78593456Y-80824955D01*
X78580277Y-80756323D01*
X78574032Y-80721039D01*
X78573662Y-80716955D01*
X78592860Y-80721657D01*
X78636180Y-80740228D01*
X78679539Y-80761295D01*
X78785002Y-80809904D01*
X78912363Y-80861168D01*
X79050346Y-80911210D01*
X79187675Y-80956151D01*
X79313073Y-80992114D01*
X79415265Y-81015222D01*
X79420684Y-81016161D01*
X79546355Y-81034268D01*
X79697575Y-81051158D01*
X79860816Y-81065713D01*
X80022552Y-81076816D01*
X80169256Y-81083349D01*
X80249115Y-81084615D01*
X80349328Y-81080475D01*
X80462418Y-81067430D01*
X80592996Y-81044546D01*
X80745674Y-81010888D01*
X80925062Y-80965520D01*
X81135771Y-80907508D01*
X81168699Y-80898133D01*
X81357664Y-80841620D01*
X81519152Y-80786920D01*
X81664227Y-80729391D01*
X81803952Y-80664391D01*
X81949390Y-80587276D01*
X82058857Y-80524577D01*
X82217771Y-80428522D01*
X82344848Y-80344704D01*
X82444145Y-80269920D01*
X82519719Y-80200965D01*
X82575630Y-80134633D01*
X82600019Y-80097172D01*
X82610761Y-80087698D01*
X82624685Y-80096384D01*
X82644450Y-80127584D01*
X82672715Y-80185653D01*
X82712138Y-80274944D01*
X82720691Y-80294824D01*
X82772643Y-80418999D01*
X82822455Y-80543764D01*
X82867863Y-80662875D01*
X82906599Y-80770089D01*
X82936399Y-80859164D01*
X82954996Y-80923857D01*
X82960302Y-80954969D01*
X83138386Y-80954969D01*
X83109813Y-80872301D01*
X82877345Y-80267939D01*
X82746530Y-79953315D01*
X78193419Y-79953315D01*
X78192603Y-80122617D01*
X78190721Y-80318123D01*
X78187833Y-80541779D01*
X78183997Y-80795532D01*
X78179273Y-81081326D01*
X78173719Y-81401108D01*
X78167393Y-81756824D01*
X78163165Y-81993154D01*
X78158754Y-82240734D01*
X78154547Y-82478701D01*
X78150597Y-82703918D01*
X78146958Y-82913248D01*
X78143684Y-83103552D01*
X78140827Y-83271695D01*
X78138443Y-83414539D01*
X78136583Y-83528946D01*
X78135302Y-83611779D01*
X78134653Y-83659902D01*
X78134583Y-83668577D01*
X78130563Y-83722936D01*
X78120619Y-83756274D01*
X78113900Y-83761384D01*
X78085666Y-83756890D01*
X78031468Y-83745120D01*
X77964625Y-83729014D01*
X77835756Y-83696643D01*
X77848213Y-83352898D01*
X77850587Y-83282374D01*
X77853909Y-83176212D01*
X77858081Y-83037837D01*
X77863003Y-82870674D01*
X77868579Y-82678149D01*
X77874711Y-82463686D01*
X77881300Y-82230710D01*
X77888249Y-81982648D01*
X77895459Y-81722923D01*
X77902833Y-81454961D01*
X77910270Y-81182307D01*
X77917534Y-80917823D01*
X77924664Y-80664003D01*
X77931574Y-80423628D01*
X77938177Y-80199481D01*
X77944385Y-79994342D01*
X77945695Y-79952364D01*
X76453081Y-79952364D01*
X76286763Y-81021605D01*
X76253753Y-81232052D01*
X76220702Y-81439438D01*
X76188414Y-81638946D01*
X76157689Y-81825762D01*
X76129330Y-81995070D01*
X76104138Y-82142053D01*
X76082915Y-82261896D01*
X76066463Y-82349784D01*
X76061556Y-82374154D01*
X76038650Y-82484371D01*
X76016678Y-82590127D01*
X75997777Y-82681142D01*
X75984080Y-82747136D01*
X75981405Y-82760038D01*
X75967156Y-82816994D01*
X75953150Y-82854240D01*
X75945722Y-82862615D01*
X75925368Y-82852290D01*
X75878431Y-82823760D01*
X75810713Y-82780693D01*
X75728012Y-82726754D01*
X75669996Y-82688287D01*
X75575601Y-82623917D01*
X75473610Y-82551992D01*
X75369094Y-82476351D01*
X75267125Y-82400831D01*
X75172775Y-82329268D01*
X75091113Y-82265500D01*
X75027211Y-82213363D01*
X74986141Y-82176696D01*
X74973092Y-82160969D01*
X74975263Y-82138391D01*
X74984098Y-82082130D01*
X74998766Y-81996853D01*
X75018433Y-81887230D01*
X75042269Y-81757928D01*
X75069441Y-81613616D01*
X75087028Y-81521622D01*
X75121955Y-81332516D01*
X75159347Y-81117110D01*
X75197184Y-80887927D01*
X75233445Y-80657485D01*
X75266112Y-80438305D01*
X75292702Y-80246439D01*
X75313301Y-80091428D01*
X75332539Y-79949166D01*
X75349779Y-79824189D01*
X75364380Y-79721029D01*
X75369749Y-79684608D01*
X75203537Y-79684608D01*
X75200447Y-79731128D01*
X75191689Y-79811123D01*
X75178024Y-79919520D01*
X75160211Y-80051249D01*
X75139011Y-80201239D01*
X75115183Y-80364418D01*
X75089488Y-80535717D01*
X75062685Y-80710063D01*
X75035535Y-80882387D01*
X75008798Y-81047616D01*
X74983232Y-81200680D01*
X74959600Y-81336508D01*
X74939956Y-81443263D01*
X74912617Y-81587106D01*
X74887835Y-81718758D01*
X74866524Y-81833255D01*
X74849602Y-81925631D01*
X74837982Y-81990923D01*
X74832581Y-82024165D01*
X74832308Y-82027021D01*
X74819393Y-82025459D01*
X74785579Y-82002045D01*
X74739500Y-81963004D01*
X74690806Y-81919109D01*
X74655079Y-81887213D01*
X74640800Y-81874840D01*
X74642720Y-81855338D01*
X74651125Y-81802472D01*
X74665133Y-81721253D01*
X74683859Y-81616694D01*
X74706420Y-81493807D01*
X74731933Y-81357603D01*
X74732327Y-81355517D01*
X74763898Y-81181722D01*
X74797853Y-80982973D01*
X74831965Y-80773118D01*
X74864005Y-80566008D01*
X74891745Y-80375491D01*
X74901668Y-80303077D01*
X74920857Y-80162480D01*
X74939006Y-80034676D01*
X74955337Y-79924754D01*
X74969069Y-79837802D01*
X74979423Y-79778908D01*
X74985620Y-79753162D01*
X74985987Y-79752601D01*
X75014748Y-79734040D01*
X75062076Y-79713828D01*
X75116152Y-79695659D01*
X75165161Y-79683225D01*
X75197283Y-79680221D01*
X75203537Y-79684608D01*
X75369749Y-79684608D01*
X75375703Y-79644222D01*
X75383110Y-79598302D01*
X75385684Y-79586880D01*
X75407562Y-79579696D01*
X75460649Y-79567100D01*
X75538281Y-79550370D01*
X75633795Y-79530785D01*
X75740525Y-79509621D01*
X75851808Y-79488157D01*
X75960980Y-79467672D01*
X76061377Y-79449443D01*
X76146335Y-79434747D01*
X76209190Y-79424864D01*
X76243277Y-79421071D01*
X76247423Y-79421618D01*
X76256701Y-79443279D01*
X76277148Y-79494574D01*
X76306058Y-79568609D01*
X76340724Y-79658488D01*
X76353936Y-79692990D01*
X76453081Y-79952364D01*
X77945695Y-79952364D01*
X77950111Y-79810993D01*
X77955269Y-79652216D01*
X77959770Y-79520792D01*
X77963528Y-79419502D01*
X77966456Y-79351128D01*
X77968466Y-79318452D01*
X77968763Y-79316384D01*
X77986842Y-79262345D01*
X78015130Y-79241223D01*
X78064225Y-79246865D01*
X78080395Y-79251552D01*
X78098769Y-79257282D01*
X78115314Y-79263919D01*
X78130089Y-79273409D01*
X78143154Y-79287698D01*
X78154565Y-79308731D01*
X78164383Y-79338455D01*
X78172666Y-79378815D01*
X78179473Y-79431757D01*
X78184862Y-79499228D01*
X78188893Y-79583173D01*
X78191623Y-79685539D01*
X78193113Y-79808271D01*
X78193419Y-79953315D01*
X82746530Y-79953315D01*
X82701365Y-79844691D01*
X82635124Y-79689723D01*
X82573217Y-79544638D01*
X82517452Y-79413696D01*
X82469640Y-79301157D01*
X82431590Y-79211281D01*
X82405112Y-79148328D01*
X82392015Y-79116558D01*
X82391463Y-79115135D01*
X82382590Y-79086236D01*
X82391474Y-79075238D01*
X82426513Y-79077716D01*
X82453961Y-79082202D01*
X82513642Y-79085712D01*
X82594572Y-79082110D01*
X82679730Y-79072185D01*
X82683719Y-79071549D01*
X82762573Y-79060805D01*
X82831870Y-79057397D01*
X82906025Y-79061645D01*
X82999455Y-79073868D01*
X83034630Y-79079334D01*
X83150796Y-79100029D01*
X83238251Y-79122641D01*
X83307267Y-79151792D01*
X83368117Y-79192109D01*
X83431072Y-79248216D01*
X83448951Y-79265859D01*
X83499177Y-79327422D01*
X83559043Y-79419160D01*
X83625107Y-79534426D01*
X83693930Y-79666572D01*
X83762071Y-79808953D01*
X83826090Y-79954920D01*
X83882545Y-80097827D01*
X83889740Y-80117461D01*
X83944830Y-80272487D01*
X84004066Y-80444695D01*
X84066206Y-80630035D01*
X84130006Y-80824457D01*
X84194224Y-81023909D01*
X84257618Y-81224343D01*
X84318945Y-81421707D01*
X84376963Y-81611952D01*
X84430428Y-81791026D01*
X84478099Y-81954880D01*
X84518732Y-82099463D01*
X84551085Y-82220725D01*
X84573917Y-82314615D01*
X84585983Y-82377084D01*
X84587493Y-82391876D01*
X84591769Y-82477983D01*
X84837734Y-82477983D01*
X84934552Y-82405925D01*
X85121645Y-82245765D01*
X84874016Y-82245765D01*
X84832064Y-82290421D01*
X84795996Y-82321931D01*
X84768097Y-82335077D01*
X84768056Y-82335077D01*
X84754550Y-82317316D01*
X84735789Y-82269437D01*
X84714641Y-82199543D01*
X84700600Y-82144577D01*
X84639533Y-81905573D01*
X84562580Y-81634574D01*
X84469374Y-81330318D01*
X84406207Y-81133461D01*
X84360066Y-80990366D01*
X84308910Y-80829391D01*
X84257685Y-80666237D01*
X84211334Y-80516605D01*
X84191491Y-80451629D01*
X84137173Y-80287035D01*
X84068594Y-80101410D01*
X83990563Y-79906344D01*
X83907895Y-79713427D01*
X83825401Y-79534249D01*
X83747893Y-79380400D01*
X83742731Y-79370791D01*
X83687722Y-79268890D01*
X83758746Y-79298470D01*
X83877162Y-79361555D01*
X83964940Y-79441138D01*
X84000599Y-79490607D01*
X84044752Y-79572641D01*
X84096959Y-79688573D01*
X84155896Y-79834366D01*
X84220240Y-80005983D01*
X84288668Y-80199386D01*
X84359857Y-80410537D01*
X84432484Y-80635400D01*
X84505225Y-80869938D01*
X84576758Y-81110112D01*
X84645759Y-81351886D01*
X84710905Y-81591223D01*
X84770873Y-81824085D01*
X84787708Y-81892287D01*
X84874016Y-82245765D01*
X85121645Y-82245765D01*
X85346140Y-82053589D01*
X85734051Y-81672676D01*
X86096736Y-81264143D01*
X86432647Y-80828948D01*
X86740234Y-80368050D01*
X86876794Y-80138957D01*
X87131745Y-79655927D01*
X87351237Y-79158223D01*
X87535101Y-78647952D01*
X87683171Y-78127217D01*
X87795278Y-77598125D01*
X87871255Y-77062779D01*
X87910933Y-76523285D01*
X87912851Y-76200000D01*
X87755730Y-76200000D01*
X87751517Y-76531330D01*
X87737677Y-76834922D01*
X87712956Y-77121208D01*
X87676098Y-77400620D01*
X87625848Y-77683590D01*
X87560951Y-77980550D01*
X87522543Y-78137833D01*
X87406366Y-78543510D01*
X87261341Y-78956339D01*
X87091351Y-79367753D01*
X86900281Y-79769182D01*
X86692016Y-80152058D01*
X86470441Y-80507812D01*
X86403931Y-80605140D01*
X86301322Y-80752033D01*
X86101084Y-80549805D01*
X86007674Y-80458025D01*
X85931964Y-80390283D01*
X85866554Y-80340664D01*
X85804046Y-80303256D01*
X85773846Y-80288343D01*
X85588949Y-80201551D01*
X85436348Y-80128547D01*
X85312542Y-80067445D01*
X85214030Y-80016363D01*
X85137312Y-79973414D01*
X85078886Y-79936716D01*
X85035253Y-79904383D01*
X85002910Y-79874531D01*
X85000692Y-79872180D01*
X84899676Y-79768444D01*
X84802191Y-79679330D01*
X84700612Y-79599404D01*
X84587309Y-79523236D01*
X84454656Y-79445390D01*
X84295025Y-79360435D01*
X84249846Y-79337367D01*
X83990246Y-79213699D01*
X83737811Y-79109144D01*
X83496122Y-79024653D01*
X83268756Y-78961176D01*
X83059292Y-78919666D01*
X82871309Y-78901073D01*
X82708385Y-78906349D01*
X82657462Y-78914102D01*
X82600709Y-78922862D01*
X82545367Y-78925691D01*
X82481343Y-78922048D01*
X82398545Y-78911393D01*
X82296000Y-78894741D01*
X82200642Y-78877780D01*
X82117800Y-78861719D01*
X82055937Y-78848290D01*
X82023518Y-78839227D01*
X82022462Y-78838749D01*
X81996038Y-78813969D01*
X81962454Y-78767531D01*
X81946450Y-78740791D01*
X81929788Y-78708979D01*
X81917620Y-78677654D01*
X81909228Y-78640165D01*
X81903890Y-78589863D01*
X81900885Y-78520098D01*
X81899494Y-78424221D01*
X81899011Y-78302951D01*
X81899835Y-78152951D01*
X81903521Y-78031165D01*
X81910847Y-77926785D01*
X81922591Y-77829003D01*
X81939531Y-77727013D01*
X81941070Y-77718694D01*
X81956508Y-77637483D01*
X81970882Y-77569253D01*
X81986474Y-77507338D01*
X82005566Y-77445072D01*
X82030443Y-77375787D01*
X82063386Y-77292818D01*
X82106679Y-77189499D01*
X82162604Y-77059161D01*
X82183459Y-77010846D01*
X82231568Y-76898581D01*
X82278985Y-76786375D01*
X82321369Y-76684611D01*
X82354375Y-76603671D01*
X82364874Y-76577160D01*
X82393890Y-76506225D01*
X82414999Y-76466135D01*
X82432736Y-76450694D01*
X82451638Y-76453705D01*
X82454261Y-76455045D01*
X82502251Y-76467699D01*
X82575085Y-76472379D01*
X82659353Y-76469087D01*
X82741645Y-76457826D01*
X82755154Y-76454967D01*
X82803043Y-76438102D01*
X82851979Y-76405988D01*
X82910265Y-76352396D01*
X82955813Y-76304489D01*
X83022763Y-76228558D01*
X83074085Y-76160026D01*
X83114444Y-76089516D01*
X83148503Y-76007650D01*
X83180924Y-75905051D01*
X83212022Y-75789321D01*
X83253470Y-75591025D01*
X83284423Y-75362098D01*
X83304147Y-75109748D01*
X83311908Y-74841183D01*
X83312000Y-74808085D01*
X83311022Y-74703494D01*
X83307248Y-74628561D01*
X83299423Y-74573901D01*
X83286290Y-74530125D01*
X83270030Y-74494491D01*
X83256518Y-74466608D01*
X83246526Y-74439388D01*
X83239789Y-74407156D01*
X83236040Y-74364239D01*
X83235015Y-74304963D01*
X83236447Y-74223653D01*
X83240071Y-74114637D01*
X83245607Y-73972615D01*
X83250669Y-73820589D01*
X83254970Y-73642345D01*
X83258301Y-73450739D01*
X83260455Y-73258625D01*
X83261223Y-73078860D01*
X83261172Y-73051659D01*
X83108745Y-73051659D01*
X83107597Y-73149993D01*
X83103458Y-73269382D01*
X83097230Y-73405585D01*
X83089177Y-73552523D01*
X83079064Y-73707262D01*
X83067770Y-73858050D01*
X83056175Y-73993137D01*
X83045293Y-74099606D01*
X83031843Y-74210425D01*
X83020293Y-74288816D01*
X83009075Y-74341272D01*
X82996619Y-74374290D01*
X82981356Y-74394362D01*
X82972349Y-74401458D01*
X82939430Y-74427740D01*
X82887937Y-74472949D01*
X82827285Y-74528745D01*
X82806922Y-74548005D01*
X82721511Y-74635315D01*
X82662913Y-74710956D01*
X82624809Y-74783981D01*
X82608633Y-74832181D01*
X82600149Y-74853440D01*
X82592803Y-74845056D01*
X82584764Y-74803211D01*
X82580601Y-74773692D01*
X82553124Y-74621796D01*
X82510248Y-74450791D01*
X82455061Y-74269008D01*
X82390649Y-74084776D01*
X82320100Y-73906424D01*
X82246500Y-73742282D01*
X82172937Y-73600681D01*
X82107278Y-73496544D01*
X82049367Y-73421805D01*
X81974119Y-73333419D01*
X81888286Y-73238463D01*
X81798622Y-73144016D01*
X81711882Y-73057154D01*
X81634819Y-72984955D01*
X81574187Y-72934497D01*
X81563975Y-72927189D01*
X81442892Y-72859407D01*
X81296973Y-72802335D01*
X81140094Y-72761338D01*
X81130277Y-72759439D01*
X81057253Y-72751198D01*
X80970745Y-72753211D01*
X80859710Y-72765842D01*
X80837200Y-72769132D01*
X80741573Y-72783187D01*
X80648288Y-72796437D01*
X80572141Y-72806798D01*
X80547308Y-72809975D01*
X80485606Y-72818973D01*
X80399275Y-72833352D01*
X80301995Y-72850779D01*
X80244462Y-72861649D01*
X80149748Y-72876899D01*
X80029210Y-72891819D01*
X79896086Y-72905001D01*
X79763614Y-72915040D01*
X79716923Y-72917701D01*
X79570927Y-72927440D01*
X79416557Y-72941775D01*
X79260376Y-72959725D01*
X79108948Y-72980309D01*
X78968833Y-73002548D01*
X78846596Y-73025461D01*
X78748798Y-73048067D01*
X78682003Y-73069386D01*
X78672184Y-73073775D01*
X78613936Y-73108062D01*
X78536032Y-73164242D01*
X78436155Y-73244115D01*
X78311988Y-73349484D01*
X78265432Y-73390031D01*
X78210567Y-73450298D01*
X78169500Y-73526177D01*
X78139342Y-73625052D01*
X78117199Y-73754305D01*
X78114583Y-73775170D01*
X78096925Y-73921544D01*
X78082654Y-74035784D01*
X78070091Y-74124503D01*
X78057559Y-74194314D01*
X78043379Y-74251829D01*
X78025872Y-74303663D01*
X78003361Y-74356429D01*
X77974166Y-74416738D01*
X77936610Y-74491205D01*
X77929054Y-74506183D01*
X77877711Y-74609826D01*
X77842197Y-74687154D01*
X77819693Y-74746190D01*
X77807382Y-74794962D01*
X77802446Y-74841495D01*
X77801855Y-74868448D01*
X77799643Y-74930237D01*
X77793032Y-74955744D01*
X77782616Y-74949538D01*
X77765759Y-74910299D01*
X77763376Y-74894925D01*
X77751919Y-74864153D01*
X77722060Y-74811865D01*
X77679965Y-74746935D01*
X77631798Y-74678238D01*
X77583724Y-74614647D01*
X77541907Y-74565035D01*
X77518511Y-74542458D01*
X77450721Y-74502410D01*
X77364848Y-74469397D01*
X77277611Y-74448628D01*
X77206380Y-74445229D01*
X77140673Y-74452900D01*
X77126781Y-74286123D01*
X77118893Y-74085885D01*
X77125535Y-73850407D01*
X77146616Y-73580683D01*
X77182043Y-73277712D01*
X77231725Y-72942488D01*
X77274277Y-72692846D01*
X77301966Y-72569422D01*
X77342881Y-72428309D01*
X77393695Y-72277997D01*
X77451081Y-72126975D01*
X77511712Y-71983733D01*
X77572260Y-71856760D01*
X77629399Y-71754545D01*
X77659300Y-71710438D01*
X77689343Y-71677796D01*
X77743964Y-71625600D01*
X77817469Y-71559006D01*
X77904167Y-71483173D01*
X77998364Y-71403258D01*
X77998540Y-71403111D01*
X78122355Y-71301700D01*
X78225949Y-71221927D01*
X78317208Y-71158278D01*
X78404015Y-71105242D01*
X78490434Y-71059219D01*
X78586372Y-71008747D01*
X78683469Y-70953702D01*
X78767934Y-70902081D01*
X78809475Y-70874191D01*
X78879700Y-70828506D01*
X78971081Y-70775126D01*
X79069108Y-70722333D01*
X79121666Y-70696031D01*
X79206259Y-70655688D01*
X79269802Y-70628731D01*
X79324800Y-70612160D01*
X79383753Y-70602970D01*
X79459167Y-70598160D01*
X79540653Y-70595422D01*
X79683119Y-70594586D01*
X79857929Y-70599239D01*
X80058814Y-70608853D01*
X80279505Y-70622901D01*
X80513735Y-70640855D01*
X80755235Y-70662187D01*
X80997738Y-70686368D01*
X81234976Y-70712871D01*
X81460681Y-70741168D01*
X81668584Y-70770731D01*
X81723248Y-70779243D01*
X81796592Y-70804654D01*
X81886364Y-70857903D01*
X81986777Y-70934684D01*
X82092040Y-71030688D01*
X82169329Y-71111215D01*
X82248285Y-71194260D01*
X82336496Y-71280878D01*
X82420564Y-71358150D01*
X82462188Y-71393629D01*
X82521011Y-71443512D01*
X82570909Y-71491379D01*
X82616394Y-71543377D01*
X82661975Y-71605652D01*
X82712161Y-71684352D01*
X82771462Y-71785623D01*
X82841999Y-71911307D01*
X82906119Y-72031728D01*
X82955922Y-72139175D01*
X82994451Y-72243549D01*
X83024746Y-72354753D01*
X83049848Y-72482686D01*
X83072797Y-72637251D01*
X83078633Y-72681831D01*
X83091848Y-72789465D01*
X83101111Y-72880747D01*
X83106663Y-72965027D01*
X83108745Y-73051659D01*
X83261172Y-73051659D01*
X83261103Y-73015231D01*
X83259902Y-72836151D01*
X83257062Y-72689783D01*
X83251381Y-72569761D01*
X83241657Y-72469721D01*
X83226689Y-72383300D01*
X83205275Y-72304133D01*
X83176212Y-72225857D01*
X83138299Y-72142108D01*
X83090333Y-72046522D01*
X83071151Y-72009483D01*
X83022132Y-71913305D01*
X82976659Y-71820645D01*
X82939528Y-71741495D01*
X82915533Y-71685850D01*
X82914073Y-71682050D01*
X82872715Y-71596889D01*
X82810711Y-71510074D01*
X82723805Y-71416645D01*
X82607744Y-71311644D01*
X82566906Y-71277395D01*
X82487541Y-71207374D01*
X82410539Y-71131876D01*
X82346875Y-71062008D01*
X82318897Y-71026366D01*
X82214444Y-70891064D01*
X82113804Y-70788285D01*
X82009302Y-70713201D01*
X81893263Y-70660986D01*
X81758014Y-70626813D01*
X81661000Y-70612551D01*
X81487266Y-70589939D01*
X81291363Y-70560774D01*
X81089152Y-70527502D01*
X80957616Y-70504053D01*
X80879269Y-70492523D01*
X80772304Y-70480896D01*
X80647162Y-70470094D01*
X80514290Y-70461041D01*
X80410539Y-70455723D01*
X80280900Y-70449253D01*
X80152568Y-70441201D01*
X80035417Y-70432306D01*
X79939322Y-70423305D01*
X79883000Y-70416336D01*
X79657214Y-70400065D01*
X79436508Y-70420517D01*
X79218653Y-70478259D01*
X79001416Y-70573857D01*
X78810935Y-70688433D01*
X78721213Y-70744976D01*
X78620432Y-70802417D01*
X78528370Y-70849561D01*
X78516519Y-70855060D01*
X78441169Y-70890900D01*
X78372209Y-70927773D01*
X78303638Y-70969828D01*
X78229454Y-71021212D01*
X78143658Y-71086073D01*
X78040249Y-71168560D01*
X77918625Y-71268354D01*
X77790557Y-71375335D01*
X77688155Y-71464956D01*
X77606365Y-71544007D01*
X77540133Y-71619279D01*
X77484407Y-71697564D01*
X77434131Y-71785652D01*
X77384252Y-71890335D01*
X77329717Y-72018403D01*
X77292471Y-72109756D01*
X77252271Y-72210530D01*
X77218996Y-72298697D01*
X77191126Y-72380542D01*
X77167138Y-72462350D01*
X77145512Y-72550404D01*
X77124728Y-72650990D01*
X77103263Y-72770393D01*
X77079597Y-72914896D01*
X77052208Y-73090785D01*
X77047313Y-73122692D01*
X77027406Y-73255110D01*
X77011459Y-73369165D01*
X76998868Y-73472486D01*
X76989031Y-73572705D01*
X76981343Y-73677453D01*
X76975203Y-73794358D01*
X76970006Y-73931053D01*
X76965149Y-74095168D01*
X76962521Y-74195303D01*
X76959040Y-74357405D01*
X76956871Y-74515578D01*
X76956014Y-74663258D01*
X76956466Y-74793884D01*
X76958226Y-74900893D01*
X76961293Y-74977722D01*
X76962686Y-74996380D01*
X76977604Y-75131161D01*
X76998468Y-75278336D01*
X77023400Y-75427360D01*
X77050520Y-75567688D01*
X77077949Y-75688775D01*
X77100566Y-75770154D01*
X77161027Y-75926521D01*
X77240518Y-76081792D01*
X77333906Y-76228796D01*
X77436060Y-76360359D01*
X77541848Y-76469311D01*
X77646137Y-76548479D01*
X77665500Y-76559638D01*
X77731693Y-76592121D01*
X77785493Y-76606440D01*
X77846552Y-76606797D01*
X77874390Y-76604286D01*
X77944110Y-76592394D01*
X78004399Y-76574181D01*
X78027672Y-76562717D01*
X78049178Y-76549338D01*
X78066191Y-76544734D01*
X78081646Y-76553590D01*
X78098479Y-76580596D01*
X78119622Y-76630436D01*
X78148012Y-76707799D01*
X78185912Y-76815461D01*
X78261308Y-77030384D01*
X78260984Y-77421154D01*
X78260289Y-77564577D01*
X78257915Y-77679085D01*
X78253026Y-77774826D01*
X78244789Y-77861952D01*
X78232370Y-77950614D01*
X78214934Y-78050962D01*
X78204779Y-78105000D01*
X78184201Y-78210122D01*
X78164850Y-78303914D01*
X78148410Y-78378566D01*
X78136569Y-78426266D01*
X78133071Y-78437154D01*
X78117246Y-78476231D01*
X78115899Y-78437154D01*
X78102352Y-78352021D01*
X78071120Y-78270902D01*
X78027570Y-78201390D01*
X77977065Y-78151077D01*
X77924970Y-78127556D01*
X77897961Y-78128694D01*
X77837116Y-78153740D01*
X77758004Y-78200155D01*
X77669922Y-78261615D01*
X77582169Y-78331791D01*
X77529126Y-78379642D01*
X77484082Y-78420582D01*
X77440090Y-78454417D01*
X77389727Y-78485152D01*
X77325567Y-78516792D01*
X77240186Y-78553342D01*
X77126160Y-78598806D01*
X77114038Y-78603551D01*
X76981649Y-78656934D01*
X76876426Y-78703753D01*
X76788269Y-78749195D01*
X76707074Y-78798448D01*
X76626977Y-78853643D01*
X76505672Y-78943389D01*
X76415156Y-79016349D01*
X76352460Y-79075423D01*
X76314618Y-79123509D01*
X76298662Y-79163508D01*
X76297693Y-79175273D01*
X76294361Y-79205470D01*
X76279178Y-79225559D01*
X76244357Y-79239669D01*
X76182114Y-79251931D01*
X76141385Y-79258199D01*
X76040322Y-79275564D01*
X75911716Y-79301215D01*
X75764463Y-79333047D01*
X75607462Y-79368954D01*
X75449608Y-79406830D01*
X75299800Y-79444571D01*
X75166933Y-79480071D01*
X75059906Y-79511224D01*
X75025543Y-79522257D01*
X74830922Y-79593030D01*
X74640033Y-79673131D01*
X74462925Y-79757916D01*
X74309647Y-79842746D01*
X74250003Y-79880441D01*
X74119561Y-79981005D01*
X73981686Y-80114600D01*
X73834665Y-80282958D01*
X73762728Y-80373542D01*
X73688272Y-80467800D01*
X73632615Y-80533103D01*
X73592455Y-80572725D01*
X73564492Y-80589937D01*
X73545982Y-80588370D01*
X73522994Y-80563185D01*
X73484640Y-80508746D01*
X73433993Y-80430251D01*
X73374128Y-80332898D01*
X73308119Y-80221883D01*
X73239040Y-80102406D01*
X73169966Y-79979663D01*
X73103970Y-79858852D01*
X73044128Y-79745171D01*
X73024765Y-79707154D01*
X72820022Y-79270696D01*
X72646220Y-78833274D01*
X72501307Y-78388087D01*
X72383228Y-77928339D01*
X72289933Y-77447229D01*
X72240135Y-77108538D01*
X72229379Y-77016976D01*
X72220933Y-76922985D01*
X72214568Y-76820529D01*
X72210055Y-76703572D01*
X72207167Y-76566078D01*
X72205675Y-76402011D01*
X72205349Y-76205336D01*
X72205364Y-76190231D01*
X72206298Y-75974547D01*
X72208966Y-75790349D01*
X72213960Y-75630064D01*
X72221876Y-75486117D01*
X72233308Y-75350934D01*
X72248850Y-75216942D01*
X72269095Y-75076565D01*
X72294638Y-74922231D01*
X72312944Y-74818724D01*
X72428116Y-74286972D01*
X72579263Y-73768383D01*
X72765074Y-73264476D01*
X72984242Y-72776770D01*
X73235457Y-72306783D01*
X73517411Y-71856035D01*
X73828794Y-71426044D01*
X74168297Y-71018329D01*
X74534612Y-70634410D01*
X74926429Y-70275805D01*
X75342440Y-69944032D01*
X75781335Y-69640612D01*
X76241806Y-69367062D01*
X76722544Y-69124902D01*
X77222239Y-68915650D01*
X77479532Y-68823588D01*
X77976609Y-68673711D01*
X78478231Y-68558959D01*
X78988103Y-68478816D01*
X79509930Y-68432765D01*
X80047418Y-68420290D01*
X80327246Y-68426632D01*
X80863272Y-68465780D01*
X81389952Y-68541950D01*
X81905859Y-68653899D01*
X82409563Y-68800382D01*
X82899637Y-68980155D01*
X83374652Y-69191974D01*
X83833179Y-69434596D01*
X84273789Y-69706775D01*
X84695055Y-70007268D01*
X85095547Y-70334831D01*
X85473837Y-70688219D01*
X85828497Y-71066189D01*
X86158097Y-71467496D01*
X86461210Y-71890897D01*
X86736406Y-72335147D01*
X86982258Y-72799002D01*
X87197336Y-73281218D01*
X87380212Y-73780550D01*
X87529458Y-74295756D01*
X87637775Y-74793231D01*
X87672870Y-74993628D01*
X87700601Y-75175653D01*
X87721733Y-75348437D01*
X87737032Y-75521112D01*
X87747264Y-75702812D01*
X87753194Y-75902666D01*
X87755589Y-76129809D01*
X87755730Y-76200000D01*
X87912851Y-76200000D01*
X87914147Y-75981747D01*
X87880726Y-75440271D01*
X87810505Y-74900962D01*
X87703316Y-74365924D01*
X87558989Y-73837262D01*
X87412848Y-73410086D01*
X87203432Y-72905541D01*
X86960503Y-72419263D01*
X86685657Y-71952673D01*
X86380491Y-71507189D01*
X86046601Y-71084230D01*
X85685584Y-70685215D01*
X85299036Y-70311562D01*
X84888553Y-69964691D01*
X84455731Y-69646021D01*
X84002168Y-69356970D01*
X83529459Y-69098957D01*
X83039201Y-68873402D01*
X82532990Y-68681722D01*
X82012423Y-68525338D01*
X81879190Y-68491672D01*
X81543660Y-68416215D01*
X81223734Y-68357749D01*
X80909257Y-68315200D01*
X80590074Y-68287496D01*
X80256030Y-68273566D01*
X79896970Y-68272335D01*
X79814616Y-68273644D01*
D12*
X125220000Y-74640000D02*
X125470000Y-74640000D01*
X125220000Y-80640000D02*
X125220000Y-74640000D01*
X125470000Y-80640000D02*
X125220000Y-80640000D01*
X128720000Y-80640000D02*
X128470000Y-80640000D01*
X128720000Y-74640000D02*
X128720000Y-80640000D01*
X128470000Y-74640000D02*
X128720000Y-74640000D01*
X142020000Y-74330000D02*
X142020000Y-80330000D01*
X142020000Y-80330000D02*
X130020000Y-80330000D01*
X130020000Y-80330000D02*
X130020000Y-74330000D01*
X130020000Y-74330000D02*
X142020000Y-74330000D01*
D13*
X139094166Y-50964785D02*
X138927500Y-51714785D01*
X138760833Y-50964785D01*
X138308452Y-51643357D02*
X138332261Y-51679071D01*
X138403690Y-51714785D01*
X138451309Y-51714785D01*
X138522738Y-51679071D01*
X138570357Y-51607642D01*
X138594166Y-51536214D01*
X138617976Y-51393357D01*
X138617976Y-51286214D01*
X138594166Y-51143357D01*
X138570357Y-51071928D01*
X138522738Y-51000500D01*
X138451309Y-50964785D01*
X138403690Y-50964785D01*
X138332261Y-51000500D01*
X138308452Y-51036214D01*
X137808452Y-51643357D02*
X137832261Y-51679071D01*
X137903690Y-51714785D01*
X137951309Y-51714785D01*
X138022738Y-51679071D01*
X138070357Y-51607642D01*
X138094166Y-51536214D01*
X138117976Y-51393357D01*
X138117976Y-51286214D01*
X138094166Y-51143357D01*
X138070357Y-51071928D01*
X138022738Y-51000500D01*
X137951309Y-50964785D01*
X137903690Y-50964785D01*
X137832261Y-51000500D01*
X137808452Y-51036214D01*
X138764809Y-49174785D02*
X138931476Y-48817642D01*
X139050523Y-49174785D02*
X139050523Y-48424785D01*
X138860047Y-48424785D01*
X138812428Y-48460500D01*
X138788619Y-48496214D01*
X138764809Y-48567642D01*
X138764809Y-48674785D01*
X138788619Y-48746214D01*
X138812428Y-48781928D01*
X138860047Y-48817642D01*
X139050523Y-48817642D01*
X138574333Y-49139071D02*
X138502904Y-49174785D01*
X138383857Y-49174785D01*
X138336238Y-49139071D01*
X138312428Y-49103357D01*
X138288619Y-49031928D01*
X138288619Y-48960500D01*
X138312428Y-48889071D01*
X138336238Y-48853357D01*
X138383857Y-48817642D01*
X138479095Y-48781928D01*
X138526714Y-48746214D01*
X138550523Y-48710500D01*
X138574333Y-48639071D01*
X138574333Y-48567642D01*
X138550523Y-48496214D01*
X138526714Y-48460500D01*
X138479095Y-48424785D01*
X138360047Y-48424785D01*
X138288619Y-48460500D01*
X138145761Y-48424785D02*
X137860047Y-48424785D01*
X138002904Y-49174785D02*
X138002904Y-48424785D01*
X138808452Y-45857000D02*
X138856071Y-45821285D01*
X138927500Y-45821285D01*
X138998928Y-45857000D01*
X139046547Y-45928428D01*
X139070357Y-45999857D01*
X139094166Y-46142714D01*
X139094166Y-46249857D01*
X139070357Y-46392714D01*
X139046547Y-46464142D01*
X138998928Y-46535571D01*
X138927500Y-46571285D01*
X138879880Y-46571285D01*
X138808452Y-46535571D01*
X138784642Y-46499857D01*
X138784642Y-46249857D01*
X138879880Y-46249857D01*
X138570357Y-46571285D02*
X138570357Y-45821285D01*
X138284642Y-46571285D01*
X138284642Y-45821285D01*
X138046547Y-46571285D02*
X138046547Y-45821285D01*
X137927500Y-45821285D01*
X137856071Y-45857000D01*
X137808452Y-45928428D01*
X137784642Y-45999857D01*
X137760833Y-46142714D01*
X137760833Y-46249857D01*
X137784642Y-46392714D01*
X137808452Y-46464142D01*
X137856071Y-46535571D01*
X137927500Y-46571285D01*
X138046547Y-46571285D01*
X138836238Y-44094785D02*
X139002904Y-43737642D01*
X139121952Y-44094785D02*
X139121952Y-43344785D01*
X138931476Y-43344785D01*
X138883857Y-43380500D01*
X138860047Y-43416214D01*
X138836238Y-43487642D01*
X138836238Y-43594785D01*
X138860047Y-43666214D01*
X138883857Y-43701928D01*
X138931476Y-43737642D01*
X139121952Y-43737642D01*
X138645761Y-43880500D02*
X138407666Y-43880500D01*
X138693380Y-44094785D02*
X138526714Y-43344785D01*
X138360047Y-44094785D01*
X138241000Y-43344785D02*
X138121952Y-44094785D01*
X138026714Y-43559071D01*
X137931476Y-44094785D01*
X137812428Y-43344785D01*
D12*
X133526818Y-40715428D02*
X132764913Y-40715428D01*
D13*
X123572428Y-44094785D02*
X123810523Y-44094785D01*
X123810523Y-43344785D01*
X123405761Y-43701928D02*
X123239095Y-43701928D01*
X123167666Y-44094785D02*
X123405761Y-44094785D01*
X123405761Y-43344785D01*
X123167666Y-43344785D01*
X122953380Y-44094785D02*
X122953380Y-43344785D01*
X122834333Y-43344785D01*
X122762904Y-43380500D01*
X122715285Y-43451928D01*
X122691476Y-43523357D01*
X122667666Y-43666214D01*
X122667666Y-43773357D01*
X122691476Y-43916214D01*
X122715285Y-43987642D01*
X122762904Y-44059071D01*
X122834333Y-44094785D01*
X122953380Y-44094785D01*
X123850000Y-46739285D02*
X123850000Y-45989285D01*
X123730952Y-45989285D01*
X123659523Y-46025000D01*
X123611904Y-46096428D01*
X123588095Y-46167857D01*
X123564285Y-46310714D01*
X123564285Y-46417857D01*
X123588095Y-46560714D01*
X123611904Y-46632142D01*
X123659523Y-46703571D01*
X123730952Y-46739285D01*
X123850000Y-46739285D01*
X123373809Y-46525000D02*
X123135714Y-46525000D01*
X123421428Y-46739285D02*
X123254761Y-45989285D01*
X123088095Y-46739285D01*
X122992857Y-45989285D02*
X122707142Y-45989285D01*
X122850000Y-46739285D02*
X122850000Y-45989285D01*
X122564285Y-46525000D02*
X122326190Y-46525000D01*
X122611904Y-46739285D02*
X122445238Y-45989285D01*
X122278571Y-46739285D01*
X138847619Y-61767857D02*
X138871428Y-61803571D01*
X138942857Y-61839285D01*
X138990476Y-61839285D01*
X139061904Y-61803571D01*
X139109523Y-61732142D01*
X139133333Y-61660714D01*
X139157142Y-61517857D01*
X139157142Y-61410714D01*
X139133333Y-61267857D01*
X139109523Y-61196428D01*
X139061904Y-61125000D01*
X138990476Y-61089285D01*
X138942857Y-61089285D01*
X138871428Y-61125000D01*
X138847619Y-61160714D01*
X138538095Y-61089285D02*
X138442857Y-61089285D01*
X138395238Y-61125000D01*
X138347619Y-61196428D01*
X138323809Y-61339285D01*
X138323809Y-61589285D01*
X138347619Y-61732142D01*
X138395238Y-61803571D01*
X138442857Y-61839285D01*
X138538095Y-61839285D01*
X138585714Y-61803571D01*
X138633333Y-61732142D01*
X138657142Y-61589285D01*
X138657142Y-61339285D01*
X138633333Y-61196428D01*
X138585714Y-61125000D01*
X138538095Y-61089285D01*
X137871428Y-61839285D02*
X138109523Y-61839285D01*
X138109523Y-61089285D01*
X137752380Y-61089285D02*
X137442857Y-61089285D01*
X137609523Y-61375000D01*
X137538095Y-61375000D01*
X137490476Y-61410714D01*
X137466666Y-61446428D01*
X137442857Y-61517857D01*
X137442857Y-61696428D01*
X137466666Y-61767857D01*
X137490476Y-61803571D01*
X137538095Y-61839285D01*
X137680952Y-61839285D01*
X137728571Y-61803571D01*
X137752380Y-61767857D01*
X123630952Y-59271285D02*
X123797619Y-58914142D01*
X123916666Y-59271285D02*
X123916666Y-58521285D01*
X123726190Y-58521285D01*
X123678571Y-58557000D01*
X123654761Y-58592714D01*
X123630952Y-58664142D01*
X123630952Y-58771285D01*
X123654761Y-58842714D01*
X123678571Y-58878428D01*
X123726190Y-58914142D01*
X123916666Y-58914142D01*
X123321428Y-58521285D02*
X123226190Y-58521285D01*
X123178571Y-58557000D01*
X123130952Y-58628428D01*
X123107142Y-58771285D01*
X123107142Y-59021285D01*
X123130952Y-59164142D01*
X123178571Y-59235571D01*
X123226190Y-59271285D01*
X123321428Y-59271285D01*
X123369047Y-59235571D01*
X123416666Y-59164142D01*
X123440476Y-59021285D01*
X123440476Y-58771285D01*
X123416666Y-58628428D01*
X123369047Y-58557000D01*
X123321428Y-58521285D01*
X122940476Y-58521285D02*
X122821428Y-59271285D01*
X122726190Y-58735571D01*
X122630952Y-59271285D01*
X122511904Y-58521285D01*
X122226190Y-58521285D02*
X122178571Y-58521285D01*
X122130952Y-58557000D01*
X122107142Y-58592714D01*
X122083333Y-58664142D01*
X122059523Y-58807000D01*
X122059523Y-58985571D01*
X122083333Y-59128428D01*
X122107142Y-59199857D01*
X122130952Y-59235571D01*
X122178571Y-59271285D01*
X122226190Y-59271285D01*
X122273809Y-59235571D01*
X122297619Y-59199857D01*
X122321428Y-59128428D01*
X122345238Y-58985571D01*
X122345238Y-58807000D01*
X122321428Y-58664142D01*
X122297619Y-58592714D01*
X122273809Y-58557000D01*
X122226190Y-58521285D01*
X138847619Y-59267857D02*
X138871428Y-59303571D01*
X138942857Y-59339285D01*
X138990476Y-59339285D01*
X139061904Y-59303571D01*
X139109523Y-59232142D01*
X139133333Y-59160714D01*
X139157142Y-59017857D01*
X139157142Y-58910714D01*
X139133333Y-58767857D01*
X139109523Y-58696428D01*
X139061904Y-58625000D01*
X138990476Y-58589285D01*
X138942857Y-58589285D01*
X138871428Y-58625000D01*
X138847619Y-58660714D01*
X138538095Y-58589285D02*
X138442857Y-58589285D01*
X138395238Y-58625000D01*
X138347619Y-58696428D01*
X138323809Y-58839285D01*
X138323809Y-59089285D01*
X138347619Y-59232142D01*
X138395238Y-59303571D01*
X138442857Y-59339285D01*
X138538095Y-59339285D01*
X138585714Y-59303571D01*
X138633333Y-59232142D01*
X138657142Y-59089285D01*
X138657142Y-58839285D01*
X138633333Y-58696428D01*
X138585714Y-58625000D01*
X138538095Y-58589285D01*
X137871428Y-59339285D02*
X138109523Y-59339285D01*
X138109523Y-58589285D01*
X137728571Y-58660714D02*
X137704761Y-58625000D01*
X137657142Y-58589285D01*
X137538095Y-58589285D01*
X137490476Y-58625000D01*
X137466666Y-58660714D01*
X137442857Y-58732142D01*
X137442857Y-58803571D01*
X137466666Y-58910714D01*
X137752380Y-59339285D01*
X137442857Y-59339285D01*
X123846238Y-56759071D02*
X123774809Y-56794785D01*
X123655761Y-56794785D01*
X123608142Y-56759071D01*
X123584333Y-56723357D01*
X123560523Y-56651928D01*
X123560523Y-56580500D01*
X123584333Y-56509071D01*
X123608142Y-56473357D01*
X123655761Y-56437642D01*
X123751000Y-56401928D01*
X123798619Y-56366214D01*
X123822428Y-56330500D01*
X123846238Y-56259071D01*
X123846238Y-56187642D01*
X123822428Y-56116214D01*
X123798619Y-56080500D01*
X123751000Y-56044785D01*
X123631952Y-56044785D01*
X123560523Y-56080500D01*
X123060523Y-56723357D02*
X123084333Y-56759071D01*
X123155761Y-56794785D01*
X123203380Y-56794785D01*
X123274809Y-56759071D01*
X123322428Y-56687642D01*
X123346238Y-56616214D01*
X123370047Y-56473357D01*
X123370047Y-56366214D01*
X123346238Y-56223357D01*
X123322428Y-56151928D01*
X123274809Y-56080500D01*
X123203380Y-56044785D01*
X123155761Y-56044785D01*
X123084333Y-56080500D01*
X123060523Y-56116214D01*
X122608142Y-56794785D02*
X122846238Y-56794785D01*
X122846238Y-56044785D01*
X138847619Y-56723357D02*
X138871428Y-56759071D01*
X138942857Y-56794785D01*
X138990476Y-56794785D01*
X139061904Y-56759071D01*
X139109523Y-56687642D01*
X139133333Y-56616214D01*
X139157142Y-56473357D01*
X139157142Y-56366214D01*
X139133333Y-56223357D01*
X139109523Y-56151928D01*
X139061904Y-56080500D01*
X138990476Y-56044785D01*
X138942857Y-56044785D01*
X138871428Y-56080500D01*
X138847619Y-56116214D01*
X138538095Y-56044785D02*
X138442857Y-56044785D01*
X138395238Y-56080500D01*
X138347619Y-56151928D01*
X138323809Y-56294785D01*
X138323809Y-56544785D01*
X138347619Y-56687642D01*
X138395238Y-56759071D01*
X138442857Y-56794785D01*
X138538095Y-56794785D01*
X138585714Y-56759071D01*
X138633333Y-56687642D01*
X138657142Y-56544785D01*
X138657142Y-56294785D01*
X138633333Y-56151928D01*
X138585714Y-56080500D01*
X138538095Y-56044785D01*
X137871428Y-56794785D02*
X138109523Y-56794785D01*
X138109523Y-56044785D01*
X137442857Y-56794785D02*
X137728571Y-56794785D01*
X137585714Y-56794785D02*
X137585714Y-56044785D01*
X137633333Y-56151928D01*
X137680952Y-56223357D01*
X137728571Y-56259071D01*
X123858142Y-54219071D02*
X123786714Y-54254785D01*
X123667666Y-54254785D01*
X123620047Y-54219071D01*
X123596238Y-54183357D01*
X123572428Y-54111928D01*
X123572428Y-54040500D01*
X123596238Y-53969071D01*
X123620047Y-53933357D01*
X123667666Y-53897642D01*
X123762904Y-53861928D01*
X123810523Y-53826214D01*
X123834333Y-53790500D01*
X123858142Y-53719071D01*
X123858142Y-53647642D01*
X123834333Y-53576214D01*
X123810523Y-53540500D01*
X123762904Y-53504785D01*
X123643857Y-53504785D01*
X123572428Y-53540500D01*
X123358142Y-54254785D02*
X123358142Y-53504785D01*
X123239095Y-53504785D01*
X123167666Y-53540500D01*
X123120047Y-53611928D01*
X123096238Y-53683357D01*
X123072428Y-53826214D01*
X123072428Y-53933357D01*
X123096238Y-54076214D01*
X123120047Y-54147642D01*
X123167666Y-54219071D01*
X123239095Y-54254785D01*
X123358142Y-54254785D01*
X122881952Y-54040500D02*
X122643857Y-54040500D01*
X122929571Y-54254785D02*
X122762904Y-53504785D01*
X122596238Y-54254785D01*
X138847619Y-54217857D02*
X138871428Y-54253571D01*
X138942857Y-54289285D01*
X138990476Y-54289285D01*
X139061904Y-54253571D01*
X139109523Y-54182142D01*
X139133333Y-54110714D01*
X139157142Y-53967857D01*
X139157142Y-53860714D01*
X139133333Y-53717857D01*
X139109523Y-53646428D01*
X139061904Y-53575000D01*
X138990476Y-53539285D01*
X138942857Y-53539285D01*
X138871428Y-53575000D01*
X138847619Y-53610714D01*
X138538095Y-53539285D02*
X138442857Y-53539285D01*
X138395238Y-53575000D01*
X138347619Y-53646428D01*
X138323809Y-53789285D01*
X138323809Y-54039285D01*
X138347619Y-54182142D01*
X138395238Y-54253571D01*
X138442857Y-54289285D01*
X138538095Y-54289285D01*
X138585714Y-54253571D01*
X138633333Y-54182142D01*
X138657142Y-54039285D01*
X138657142Y-53789285D01*
X138633333Y-53646428D01*
X138585714Y-53575000D01*
X138538095Y-53539285D01*
X137871428Y-54289285D02*
X138109523Y-54289285D01*
X138109523Y-53539285D01*
X137609523Y-53539285D02*
X137561904Y-53539285D01*
X137514285Y-53575000D01*
X137490476Y-53610714D01*
X137466666Y-53682142D01*
X137442857Y-53825000D01*
X137442857Y-54003571D01*
X137466666Y-54146428D01*
X137490476Y-54217857D01*
X137514285Y-54253571D01*
X137561904Y-54289285D01*
X137609523Y-54289285D01*
X137657142Y-54253571D01*
X137680952Y-54217857D01*
X137704761Y-54146428D01*
X137728571Y-54003571D01*
X137728571Y-53825000D01*
X137704761Y-53682142D01*
X137680952Y-53610714D01*
X137657142Y-53575000D01*
X137609523Y-53539285D01*
X138947380Y-71578428D02*
X138875952Y-71614142D01*
X138852142Y-71649857D01*
X138828333Y-71721285D01*
X138828333Y-71828428D01*
X138852142Y-71899857D01*
X138875952Y-71935571D01*
X138923571Y-71971285D01*
X139114047Y-71971285D01*
X139114047Y-71221285D01*
X138947380Y-71221285D01*
X138899761Y-71257000D01*
X138875952Y-71292714D01*
X138852142Y-71364142D01*
X138852142Y-71435571D01*
X138875952Y-71507000D01*
X138899761Y-71542714D01*
X138947380Y-71578428D01*
X139114047Y-71578428D01*
X138399761Y-71221285D02*
X138495000Y-71221285D01*
X138542619Y-71257000D01*
X138566428Y-71292714D01*
X138614047Y-71399857D01*
X138637857Y-71542714D01*
X138637857Y-71828428D01*
X138614047Y-71899857D01*
X138590238Y-71935571D01*
X138542619Y-71971285D01*
X138447380Y-71971285D01*
X138399761Y-71935571D01*
X138375952Y-71899857D01*
X138352142Y-71828428D01*
X138352142Y-71649857D01*
X138375952Y-71578428D01*
X138399761Y-71542714D01*
X138447380Y-71507000D01*
X138542619Y-71507000D01*
X138590238Y-71542714D01*
X138614047Y-71578428D01*
X138637857Y-71649857D01*
X123453380Y-71641928D02*
X123381952Y-71677642D01*
X123358142Y-71713357D01*
X123334333Y-71784785D01*
X123334333Y-71891928D01*
X123358142Y-71963357D01*
X123381952Y-71999071D01*
X123429571Y-72034785D01*
X123620047Y-72034785D01*
X123620047Y-71284785D01*
X123453380Y-71284785D01*
X123405761Y-71320500D01*
X123381952Y-71356214D01*
X123358142Y-71427642D01*
X123358142Y-71499071D01*
X123381952Y-71570500D01*
X123405761Y-71606214D01*
X123453380Y-71641928D01*
X123620047Y-71641928D01*
X122881952Y-71284785D02*
X123120047Y-71284785D01*
X123143857Y-71641928D01*
X123120047Y-71606214D01*
X123072428Y-71570500D01*
X122953380Y-71570500D01*
X122905761Y-71606214D01*
X122881952Y-71641928D01*
X122858142Y-71713357D01*
X122858142Y-71891928D01*
X122881952Y-71963357D01*
X122905761Y-71999071D01*
X122953380Y-72034785D01*
X123072428Y-72034785D01*
X123120047Y-71999071D01*
X123143857Y-71963357D01*
X123453380Y-69101928D02*
X123381952Y-69137642D01*
X123358142Y-69173357D01*
X123334333Y-69244785D01*
X123334333Y-69351928D01*
X123358142Y-69423357D01*
X123381952Y-69459071D01*
X123429571Y-69494785D01*
X123620047Y-69494785D01*
X123620047Y-68744785D01*
X123453380Y-68744785D01*
X123405761Y-68780500D01*
X123381952Y-68816214D01*
X123358142Y-68887642D01*
X123358142Y-68959071D01*
X123381952Y-69030500D01*
X123405761Y-69066214D01*
X123453380Y-69101928D01*
X123620047Y-69101928D01*
X122905761Y-68994785D02*
X122905761Y-69494785D01*
X123024809Y-68709071D02*
X123143857Y-69244785D01*
X122834333Y-69244785D01*
X139010880Y-68974928D02*
X138939452Y-69010642D01*
X138915642Y-69046357D01*
X138891833Y-69117785D01*
X138891833Y-69224928D01*
X138915642Y-69296357D01*
X138939452Y-69332071D01*
X138987071Y-69367785D01*
X139177547Y-69367785D01*
X139177547Y-68617785D01*
X139010880Y-68617785D01*
X138963261Y-68653500D01*
X138939452Y-68689214D01*
X138915642Y-68760642D01*
X138915642Y-68832071D01*
X138939452Y-68903500D01*
X138963261Y-68939214D01*
X139010880Y-68974928D01*
X139177547Y-68974928D01*
X138701357Y-68689214D02*
X138677547Y-68653500D01*
X138629928Y-68617785D01*
X138510880Y-68617785D01*
X138463261Y-68653500D01*
X138439452Y-68689214D01*
X138415642Y-68760642D01*
X138415642Y-68832071D01*
X138439452Y-68939214D01*
X138725166Y-69367785D01*
X138415642Y-69367785D01*
X123630952Y-66989285D02*
X123797619Y-66632142D01*
X123916666Y-66989285D02*
X123916666Y-66239285D01*
X123726190Y-66239285D01*
X123678571Y-66275000D01*
X123654761Y-66310714D01*
X123630952Y-66382142D01*
X123630952Y-66489285D01*
X123654761Y-66560714D01*
X123678571Y-66596428D01*
X123726190Y-66632142D01*
X123916666Y-66632142D01*
X123321428Y-66239285D02*
X123226190Y-66239285D01*
X123178571Y-66275000D01*
X123130952Y-66346428D01*
X123107142Y-66489285D01*
X123107142Y-66739285D01*
X123130952Y-66882142D01*
X123178571Y-66953571D01*
X123226190Y-66989285D01*
X123321428Y-66989285D01*
X123369047Y-66953571D01*
X123416666Y-66882142D01*
X123440476Y-66739285D01*
X123440476Y-66489285D01*
X123416666Y-66346428D01*
X123369047Y-66275000D01*
X123321428Y-66239285D01*
X122940476Y-66239285D02*
X122821428Y-66989285D01*
X122726190Y-66453571D01*
X122630952Y-66989285D01*
X122511904Y-66239285D01*
X122369047Y-66239285D02*
X122059523Y-66239285D01*
X122226190Y-66525000D01*
X122154761Y-66525000D01*
X122107142Y-66560714D01*
X122083333Y-66596428D01*
X122059523Y-66667857D01*
X122059523Y-66846428D01*
X122083333Y-66917857D01*
X122107142Y-66953571D01*
X122154761Y-66989285D01*
X122297619Y-66989285D01*
X122345238Y-66953571D01*
X122369047Y-66917857D01*
X138847619Y-66917857D02*
X138871428Y-66953571D01*
X138942857Y-66989285D01*
X138990476Y-66989285D01*
X139061904Y-66953571D01*
X139109523Y-66882142D01*
X139133333Y-66810714D01*
X139157142Y-66667857D01*
X139157142Y-66560714D01*
X139133333Y-66417857D01*
X139109523Y-66346428D01*
X139061904Y-66275000D01*
X138990476Y-66239285D01*
X138942857Y-66239285D01*
X138871428Y-66275000D01*
X138847619Y-66310714D01*
X138538095Y-66239285D02*
X138442857Y-66239285D01*
X138395238Y-66275000D01*
X138347619Y-66346428D01*
X138323809Y-66489285D01*
X138323809Y-66739285D01*
X138347619Y-66882142D01*
X138395238Y-66953571D01*
X138442857Y-66989285D01*
X138538095Y-66989285D01*
X138585714Y-66953571D01*
X138633333Y-66882142D01*
X138657142Y-66739285D01*
X138657142Y-66489285D01*
X138633333Y-66346428D01*
X138585714Y-66275000D01*
X138538095Y-66239285D01*
X137871428Y-66989285D02*
X138109523Y-66989285D01*
X138109523Y-66239285D01*
X137466666Y-66239285D02*
X137704761Y-66239285D01*
X137728571Y-66596428D01*
X137704761Y-66560714D01*
X137657142Y-66525000D01*
X137538095Y-66525000D01*
X137490476Y-66560714D01*
X137466666Y-66596428D01*
X137442857Y-66667857D01*
X137442857Y-66846428D01*
X137466666Y-66917857D01*
X137490476Y-66953571D01*
X137538095Y-66989285D01*
X137657142Y-66989285D01*
X137704761Y-66953571D01*
X137728571Y-66917857D01*
X123630952Y-64478285D02*
X123797619Y-64121142D01*
X123916666Y-64478285D02*
X123916666Y-63728285D01*
X123726190Y-63728285D01*
X123678571Y-63764000D01*
X123654761Y-63799714D01*
X123630952Y-63871142D01*
X123630952Y-63978285D01*
X123654761Y-64049714D01*
X123678571Y-64085428D01*
X123726190Y-64121142D01*
X123916666Y-64121142D01*
X123321428Y-63728285D02*
X123226190Y-63728285D01*
X123178571Y-63764000D01*
X123130952Y-63835428D01*
X123107142Y-63978285D01*
X123107142Y-64228285D01*
X123130952Y-64371142D01*
X123178571Y-64442571D01*
X123226190Y-64478285D01*
X123321428Y-64478285D01*
X123369047Y-64442571D01*
X123416666Y-64371142D01*
X123440476Y-64228285D01*
X123440476Y-63978285D01*
X123416666Y-63835428D01*
X123369047Y-63764000D01*
X123321428Y-63728285D01*
X122940476Y-63728285D02*
X122821428Y-64478285D01*
X122726190Y-63942571D01*
X122630952Y-64478285D01*
X122511904Y-63728285D01*
X122345238Y-63799714D02*
X122321428Y-63764000D01*
X122273809Y-63728285D01*
X122154761Y-63728285D01*
X122107142Y-63764000D01*
X122083333Y-63799714D01*
X122059523Y-63871142D01*
X122059523Y-63942571D01*
X122083333Y-64049714D01*
X122369047Y-64478285D01*
X122059523Y-64478285D01*
X138797619Y-64279857D02*
X138821428Y-64315571D01*
X138892857Y-64351285D01*
X138940476Y-64351285D01*
X139011904Y-64315571D01*
X139059523Y-64244142D01*
X139083333Y-64172714D01*
X139107142Y-64029857D01*
X139107142Y-63922714D01*
X139083333Y-63779857D01*
X139059523Y-63708428D01*
X139011904Y-63637000D01*
X138940476Y-63601285D01*
X138892857Y-63601285D01*
X138821428Y-63637000D01*
X138797619Y-63672714D01*
X138488095Y-63601285D02*
X138392857Y-63601285D01*
X138345238Y-63637000D01*
X138297619Y-63708428D01*
X138273809Y-63851285D01*
X138273809Y-64101285D01*
X138297619Y-64244142D01*
X138345238Y-64315571D01*
X138392857Y-64351285D01*
X138488095Y-64351285D01*
X138535714Y-64315571D01*
X138583333Y-64244142D01*
X138607142Y-64101285D01*
X138607142Y-63851285D01*
X138583333Y-63708428D01*
X138535714Y-63637000D01*
X138488095Y-63601285D01*
X137821428Y-64351285D02*
X138059523Y-64351285D01*
X138059523Y-63601285D01*
X137440476Y-63851285D02*
X137440476Y-64351285D01*
X137559523Y-63565571D02*
X137678571Y-64101285D01*
X137369047Y-64101285D01*
X123630952Y-61874785D02*
X123797619Y-61517642D01*
X123916666Y-61874785D02*
X123916666Y-61124785D01*
X123726190Y-61124785D01*
X123678571Y-61160500D01*
X123654761Y-61196214D01*
X123630952Y-61267642D01*
X123630952Y-61374785D01*
X123654761Y-61446214D01*
X123678571Y-61481928D01*
X123726190Y-61517642D01*
X123916666Y-61517642D01*
X123321428Y-61124785D02*
X123226190Y-61124785D01*
X123178571Y-61160500D01*
X123130952Y-61231928D01*
X123107142Y-61374785D01*
X123107142Y-61624785D01*
X123130952Y-61767642D01*
X123178571Y-61839071D01*
X123226190Y-61874785D01*
X123321428Y-61874785D01*
X123369047Y-61839071D01*
X123416666Y-61767642D01*
X123440476Y-61624785D01*
X123440476Y-61374785D01*
X123416666Y-61231928D01*
X123369047Y-61160500D01*
X123321428Y-61124785D01*
X122940476Y-61124785D02*
X122821428Y-61874785D01*
X122726190Y-61339071D01*
X122630952Y-61874785D01*
X122511904Y-61124785D01*
X122059523Y-61874785D02*
X122345238Y-61874785D01*
X122202380Y-61874785D02*
X122202380Y-61124785D01*
X122250000Y-61231928D01*
X122297619Y-61303357D01*
X122345238Y-61339071D01*
D12*
X127422380Y-76060619D02*
X126946190Y-75727285D01*
X127422380Y-75489190D02*
X126422380Y-75489190D01*
X126422380Y-75870142D01*
X126470000Y-75965380D01*
X126517619Y-76013000D01*
X126612857Y-76060619D01*
X126755714Y-76060619D01*
X126850952Y-76013000D01*
X126898571Y-75965380D01*
X126946190Y-75870142D01*
X126946190Y-75489190D01*
X126898571Y-76489190D02*
X126898571Y-76822523D01*
X127422380Y-76965380D02*
X127422380Y-76489190D01*
X126422380Y-76489190D01*
X126422380Y-76965380D01*
X127374761Y-77346333D02*
X127422380Y-77489190D01*
X127422380Y-77727285D01*
X127374761Y-77822523D01*
X127327142Y-77870142D01*
X127231904Y-77917761D01*
X127136666Y-77917761D01*
X127041428Y-77870142D01*
X126993809Y-77822523D01*
X126946190Y-77727285D01*
X126898571Y-77536809D01*
X126850952Y-77441571D01*
X126803333Y-77393952D01*
X126708095Y-77346333D01*
X126612857Y-77346333D01*
X126517619Y-77393952D01*
X126470000Y-77441571D01*
X126422380Y-77536809D01*
X126422380Y-77774904D01*
X126470000Y-77917761D01*
X126898571Y-78346333D02*
X126898571Y-78679666D01*
X127422380Y-78822523D02*
X127422380Y-78346333D01*
X126422380Y-78346333D01*
X126422380Y-78822523D01*
X126422380Y-79108238D02*
X126422380Y-79679666D01*
X127422380Y-79393952D02*
X126422380Y-79393952D01*
X135058880Y-76492595D02*
X135058880Y-77064023D01*
X136058880Y-76778309D02*
X135058880Y-76778309D01*
X136058880Y-77968785D02*
X135582690Y-77635452D01*
X136058880Y-77397357D02*
X135058880Y-77397357D01*
X135058880Y-77778309D01*
X135106500Y-77873547D01*
X135154119Y-77921166D01*
X135249357Y-77968785D01*
X135392214Y-77968785D01*
X135487452Y-77921166D01*
X135535071Y-77873547D01*
X135582690Y-77778309D01*
X135582690Y-77397357D01*
X136058880Y-78968785D02*
X135582690Y-78635452D01*
X136058880Y-78397357D02*
X135058880Y-78397357D01*
X135058880Y-78778309D01*
X135106500Y-78873547D01*
X135154119Y-78921166D01*
X135249357Y-78968785D01*
X135392214Y-78968785D01*
X135487452Y-78921166D01*
X135535071Y-78873547D01*
X135582690Y-78778309D01*
X135582690Y-78397357D01*
X136011261Y-79349738D02*
X136058880Y-79492595D01*
X136058880Y-79730690D01*
X136011261Y-79825928D01*
X135963642Y-79873547D01*
X135868404Y-79921166D01*
X135773166Y-79921166D01*
X135677928Y-79873547D01*
X135630309Y-79825928D01*
X135582690Y-79730690D01*
X135535071Y-79540214D01*
X135487452Y-79444976D01*
X135439833Y-79397357D01*
X135344595Y-79349738D01*
X135249357Y-79349738D01*
X135154119Y-79397357D01*
X135106500Y-79444976D01*
X135058880Y-79540214D01*
X135058880Y-79778309D01*
X135106500Y-79921166D01*
%LPC*%
D14*
X119879347Y-92507307D03*
D15*
X132730127Y-90689103D03*
D16*
X126500000Y-91480000D03*
D15*
X124069873Y-85689103D03*
X129450000Y-86370450D03*
D14*
X128920653Y-97727307D03*
D17*
X131263140Y-94230000D03*
X121736860Y-88730000D03*
D18*
X141911400Y-42422000D03*
X141911400Y-44962000D03*
X141911400Y-47502000D03*
X141911400Y-50042000D03*
X141911400Y-52582000D03*
X141911400Y-55122000D03*
X141911400Y-57662000D03*
X141911400Y-60202000D03*
X141911400Y-62742000D03*
X141911400Y-65282000D03*
X141911400Y-67822000D03*
X141911400Y-70362000D03*
X126691400Y-70362000D03*
X126691400Y-67822000D03*
X126691400Y-65282000D03*
X126691400Y-62742000D03*
X126691400Y-60202000D03*
X126691400Y-57662000D03*
X126691400Y-55122000D03*
X126691400Y-52582000D03*
X126691400Y-50042000D03*
X126691400Y-47502000D03*
X126691400Y-44962000D03*
X126691400Y-42422000D03*
D14*
X74780000Y-36520000D03*
D15*
X85000000Y-44520000D03*
D16*
X80000000Y-40720000D03*
D15*
X75000000Y-44520000D03*
X80000000Y-46620000D03*
D14*
X85220000Y-36520000D03*
D17*
X85500000Y-40720000D03*
X74500000Y-40720000D03*
D14*
X38780000Y-38570000D03*
D15*
X49000000Y-46570000D03*
D16*
X44000000Y-42770000D03*
D15*
X39000000Y-46570000D03*
X44000000Y-48670000D03*
D14*
X49220000Y-38570000D03*
D17*
X49500000Y-42770000D03*
X38500000Y-42770000D03*
D14*
X56780000Y-26340000D03*
D15*
X67000000Y-34340000D03*
D16*
X62000000Y-30540000D03*
D15*
X57000000Y-34340000D03*
X62000000Y-36440000D03*
D14*
X67220000Y-26340000D03*
D17*
X67500000Y-30540000D03*
X56500000Y-30540000D03*
D14*
X74780000Y-19530000D03*
D15*
X85000000Y-27530000D03*
D16*
X80000000Y-23730000D03*
D15*
X75000000Y-27530000D03*
X80000000Y-29630000D03*
D14*
X85220000Y-19530000D03*
D17*
X85500000Y-23730000D03*
X74500000Y-23730000D03*
D14*
X92780000Y-25140000D03*
D15*
X103000000Y-33140000D03*
D16*
X98000000Y-29340000D03*
D15*
X93000000Y-33140000D03*
X98000000Y-35240000D03*
D14*
X103220000Y-25140000D03*
D17*
X103500000Y-29340000D03*
X92500000Y-29340000D03*
D14*
X110780000Y-27520000D03*
D15*
X121000000Y-35520000D03*
D16*
X116000000Y-31720000D03*
D15*
X111000000Y-35520000D03*
X116000000Y-37620000D03*
D14*
X121220000Y-27520000D03*
D17*
X121500000Y-31720000D03*
X110500000Y-31720000D03*
D14*
X38780000Y-55570000D03*
D15*
X49000000Y-63570000D03*
D16*
X44000000Y-59770000D03*
D15*
X39000000Y-63570000D03*
X44000000Y-65670000D03*
D14*
X49220000Y-55570000D03*
D17*
X49500000Y-59770000D03*
X38500000Y-59770000D03*
D14*
X56780000Y-43340000D03*
D15*
X67000000Y-51340000D03*
D16*
X62000000Y-47540000D03*
D15*
X57000000Y-51340000D03*
X62000000Y-53440000D03*
D14*
X67220000Y-43340000D03*
D17*
X67500000Y-47540000D03*
X56500000Y-47540000D03*
D14*
X92780000Y-42140000D03*
D15*
X103000000Y-50140000D03*
D16*
X98000000Y-46340000D03*
D15*
X93000000Y-50140000D03*
X98000000Y-52240000D03*
D14*
X103220000Y-42140000D03*
D17*
X103500000Y-46340000D03*
X92500000Y-46340000D03*
D14*
X110780000Y-44520000D03*
D15*
X121000000Y-52520000D03*
D16*
X116000000Y-48720000D03*
D15*
X111000000Y-52520000D03*
X116000000Y-54620000D03*
D14*
X121220000Y-44520000D03*
D17*
X121500000Y-48720000D03*
X110500000Y-48720000D03*
D14*
X56780000Y-60345000D03*
D15*
X67000000Y-68345000D03*
D16*
X62000000Y-64545000D03*
D15*
X57000000Y-68345000D03*
X62000000Y-70445000D03*
D14*
X67220000Y-60345000D03*
D17*
X67500000Y-64545000D03*
X56500000Y-64545000D03*
D14*
X74780000Y-53520000D03*
D15*
X85000000Y-61520000D03*
D16*
X80000000Y-57720000D03*
D15*
X75000000Y-61520000D03*
X80000000Y-63620000D03*
D14*
X85220000Y-53520000D03*
D17*
X85500000Y-57720000D03*
X74500000Y-57720000D03*
D14*
X92780000Y-59145000D03*
D15*
X103000000Y-67145000D03*
D16*
X98000000Y-63345000D03*
D15*
X93000000Y-67145000D03*
X98000000Y-69245000D03*
D14*
X103220000Y-59145000D03*
D17*
X103500000Y-63345000D03*
X92500000Y-63345000D03*
D14*
X110780000Y-61520000D03*
D15*
X121000000Y-69520000D03*
D16*
X116000000Y-65720000D03*
D15*
X111000000Y-69520000D03*
X116000000Y-71620000D03*
D14*
X121220000Y-61520000D03*
D17*
X121500000Y-65720000D03*
X110500000Y-65720000D03*
D14*
X101810827Y-86475853D03*
D15*
X113753142Y-81393577D03*
D16*
X107940000Y-83770000D03*
D15*
X104093883Y-78805387D03*
X109467032Y-78071038D03*
D14*
X111895093Y-89177924D03*
D17*
X113252592Y-85193505D03*
X102627408Y-82346495D03*
D14*
X38780000Y-72575000D03*
D15*
X49000000Y-80575000D03*
D16*
X44000000Y-76775000D03*
D15*
X39000000Y-80575000D03*
X44000000Y-82675000D03*
D14*
X49220000Y-72575000D03*
D17*
X49500000Y-76775000D03*
X38500000Y-76775000D03*
D19*
X126970000Y-74390000D03*
X126970000Y-80890000D03*
D20*
X133520000Y-77330000D03*
X140520000Y-77330000D03*
D21*
X131720000Y-75230000D03*
X130220000Y-79430000D03*
X138720000Y-75230000D03*
X135720000Y-75230000D03*
D20*
X140520000Y-79080000D03*
X133520000Y-79080000D03*
D21*
X138720000Y-81180000D03*
X135720000Y-81180000D03*
X131720000Y-81180000D03*
X130220000Y-76980000D03*
M02*
